<?xml version="1.0" encoding="UTF-8" standalone="no"?>
<!DOCTYPE svg PUBLIC "-//W3C//DTD SVG 1.1//EN"
 "http://www.w3.org/Graphics/SVG/1.1/DTD/svg11.dtd">
<!-- Generated by graphviz version 15.0.0 (20260523.1842)
 -->
<!-- Title: foundation&#45;order&#45;cleanup flow Pages: 1 -->
<svg width="188pt" height="526pt"
 viewBox="0.00 0.00 188.00 526.00" xmlns="http://www.w3.org/2000/svg" xmlns:xlink="http://www.w3.org/1999/xlink">
<g id="graph0" class="graph" transform="scale(1 1) rotate(0) translate(25.2 500.32)">
<title>foundation&#45;order&#45;cleanup flow</title>
<polygon fill="white" stroke="none" points="-25.2,25.2 -25.2,-500.32 163.23,-500.32 163.23,25.2 -25.2,25.2"/>
<!-- row -->
<g id="node1" class="node">
<title>row</title>
<path fill="#e0f2fe" stroke="#1f2937" d="M124.53,-475.12C124.53,-475.12 13.5,-475.12 13.5,-475.12 7.5,-475.12 1.5,-469.12 1.5,-463.12 1.5,-463.12 1.5,-447.1 1.5,-447.1 1.5,-441.1 7.5,-435.1 13.5,-435.1 13.5,-435.1 124.53,-435.1 124.53,-435.1 130.53,-435.1 136.53,-441.1 136.53,-447.1 136.53,-447.1 136.53,-463.12 136.53,-463.12 136.53,-469.12 130.53,-475.12 124.53,-475.12"/>
<text xml:space="preserve" text-anchor="middle" x="69.02" y="-457.96" font-family="Arial" font-size="12.00">PartnerRow</text>
<text xml:space="preserve" text-anchor="middle" x="69.02" y="-443.71" font-family="Arial" font-size="12.00">raw tenant/order/items</text>
</g>
<!-- validate -->
<g id="node2" class="node">
<title>validate</title>
<path fill="#eef2ff" stroke="#1f2937" d="M114.03,-388.1C114.03,-388.1 24,-388.1 24,-388.1 18,-388.1 12,-382.1 12,-376.1 12,-376.1 12,-360.08 12,-360.08 12,-354.08 18,-348.08 24,-348.08 24,-348.08 114.03,-348.08 114.03,-348.08 120.03,-348.08 126.03,-354.08 126.03,-360.08 126.03,-360.08 126.03,-376.1 126.03,-376.1 126.03,-382.1 120.03,-388.1 114.03,-388.1"/>
<text xml:space="preserve" text-anchor="middle" x="69.02" y="-370.94" font-family="Arial" font-size="12.00">require_not_blank</text>
<text xml:space="preserve" text-anchor="middle" x="69.02" y="-356.69" font-family="Arial" font-size="12.00">required fields</text>
</g>
<!-- row&#45;&gt;validate -->
<g id="edge1" class="edge">
<title>row&#45;&gt;validate</title>
<path fill="none" stroke="#334155" d="M69.02,-434.82C69.02,-423.84 69.02,-409.88 69.02,-397.65"/>
<polygon fill="#334155" stroke="#334155" points="71.82,-397.82 69.02,-389.82 66.22,-397.82 71.82,-397.82"/>
</g>
<!-- normalize -->
<g id="node3" class="node">
<title>normalize</title>
<path fill="#dcfce7" stroke="#1f2937" d="M109.91,-301.08C109.91,-301.08 28.13,-301.08 28.13,-301.08 22.13,-301.08 16.12,-295.08 16.12,-289.08 16.12,-289.08 16.12,-273.06 16.12,-273.06 16.12,-267.06 22.12,-261.06 28.12,-261.06 28.12,-261.06 109.91,-261.06 109.91,-261.06 115.91,-261.06 121.91,-267.06 121.91,-273.06 121.91,-273.06 121.91,-289.08 121.91,-289.08 121.91,-295.08 115.91,-301.08 109.91,-301.08"/>
<text xml:space="preserve" text-anchor="middle" x="69.02" y="-283.92" font-family="Arial" font-size="12.00">blank_to_default</text>
<text xml:space="preserve" text-anchor="middle" x="69.02" y="-269.67" font-family="Arial" font-size="12.00">optional fields</text>
</g>
<!-- validate&#45;&gt;normalize -->
<g id="edge2" class="edge">
<title>validate&#45;&gt;normalize</title>
<path fill="none" stroke="#334155" d="M69.02,-347.8C69.02,-336.82 69.02,-322.86 69.02,-310.63"/>
<polygon fill="#334155" stroke="#334155" points="71.82,-310.8 69.02,-302.8 66.22,-310.8 71.82,-310.8"/>
</g>
<!-- skip -->
<g id="node4" class="node">
<title>skip</title>
<path fill="#fee2e2" stroke="#1f2937" d="M120.41,-214.06C120.41,-214.06 17.62,-214.06 17.62,-214.06 11.62,-214.06 5.62,-208.06 5.62,-202.06 5.62,-202.06 5.62,-186.04 5.62,-186.04 5.62,-180.04 11.62,-174.04 17.62,-174.04 17.62,-174.04 120.41,-174.04 120.41,-174.04 126.41,-174.04 132.41,-180.04 132.41,-186.04 132.41,-186.04 132.41,-202.06 132.41,-202.06 132.41,-208.06 126.41,-214.06 120.41,-214.06"/>
<text xml:space="preserve" text-anchor="middle" x="69.02" y="-196.9" font-family="Arial" font-size="12.00">skip invalid items</text>
<text xml:space="preserve" text-anchor="middle" x="69.02" y="-182.65" font-family="Arial" font-size="12.00">blank sku or qty &lt;= 0</text>
</g>
<!-- normalize&#45;&gt;skip -->
<g id="edge3" class="edge">
<title>normalize&#45;&gt;skip</title>
<path fill="none" stroke="#334155" d="M69.02,-260.78C69.02,-249.8 69.02,-235.84 69.02,-223.61"/>
<polygon fill="#334155" stroke="#334155" points="71.82,-223.78 69.02,-215.78 66.22,-223.78 71.82,-223.78"/>
</g>
<!-- report -->
<g id="node5" class="node">
<title>report</title>
<path fill="#fef3c7" stroke="#1f2937" d="M126.03,-127.04C126.03,-127.04 12,-127.04 12,-127.04 6,-127.04 0,-121.04 0,-115.04 0,-115.04 0,-99.02 0,-99.02 0,-93.02 6,-87.02 12,-87.02 12,-87.02 126.03,-87.02 126.03,-87.02 132.03,-87.02 138.03,-93.02 138.03,-99.02 138.03,-99.02 138.03,-115.04 138.03,-115.04 138.03,-121.04 132.03,-127.04 126.03,-127.04"/>
<text xml:space="preserve" text-anchor="middle" x="69.02" y="-109.88" font-family="Arial" font-size="12.00">CleanupReport</text>
<text xml:space="preserve" text-anchor="middle" x="69.02" y="-95.63" font-family="Arial" font-size="12.00">orders + skipped count</text>
</g>
<!-- skip&#45;&gt;report -->
<g id="edge4" class="edge">
<title>skip&#45;&gt;report</title>
<path fill="none" stroke="#334155" d="M69.02,-173.76C69.02,-162.78 69.02,-148.82 69.02,-136.59"/>
<polygon fill="#334155" stroke="#334155" points="71.82,-136.76 69.02,-128.76 66.22,-136.76 71.82,-136.76"/>
</g>
<!-- logs -->
<g id="node6" class="node">
<title>logs</title>
<path fill="#fae8ff" stroke="#1f2937" d="M103.53,-40.02C103.53,-40.02 34.5,-40.02 34.5,-40.02 28.5,-40.02 22.5,-34.02 22.5,-28.02 22.5,-28.02 22.5,-12 22.5,-12 22.5,-6 28.5,0 34.5,0 34.5,0 103.53,0 103.53,0 109.53,0 115.53,-6 115.53,-12 115.53,-12 115.53,-28.02 115.53,-28.02 115.53,-34.02 109.53,-40.02 103.53,-40.02"/>
<text xml:space="preserve" text-anchor="middle" x="69.02" y="-22.86" font-family="Arial" font-size="12.00">CapturedLogs</text>
<text xml:space="preserve" text-anchor="middle" x="69.02" y="-8.61" font-family="Arial" font-size="12.00">correlation.id</text>
</g>
<!-- report&#45;&gt;logs -->
<g id="edge5" class="edge">
<title>report&#45;&gt;logs</title>
<path fill="none" stroke="#334155" d="M69.02,-86.74C69.02,-75.76 69.02,-61.8 69.02,-49.57"/>
<polygon fill="#334155" stroke="#334155" points="71.82,-49.74 69.02,-41.74 66.22,-49.74 71.82,-49.74"/>
</g>
</g>
</svg>
