<?xml version="1.0" encoding="UTF-8" standalone="no"?>
<!DOCTYPE svg PUBLIC "-//W3C//DTD SVG 1.1//EN"
 "http://www.w3.org/Graphics/SVG/1.1/DTD/svg11.dtd">
<!-- Generated by graphviz version 15.0.0 (20260523.1842)
 -->
<!-- Title: example&#45;catalog&#45;enrichment&#45;fanout Pages: 1 -->
<svg width="1749pt" height="96pt"
 viewBox="14.00 14.00 1735.00 81.00" xmlns="http://www.w3.org/2000/svg" xmlns:xlink="http://www.w3.org/1999/xlink">
<g id="graph0" class="graph" transform="scale(1 1) rotate(0) translate(18.4 77.4)">
<title>example&#45;catalog&#45;enrichment&#45;fanout</title>
<polygon fill="#fbfaf6" stroke="none" points="-4,4 -4,-63 1716.5,-63 1716.5,4 -4,4"/>
<!-- step0 -->
<g id="node1" class="node">
<title>step0</title>
<path fill="#d7ecf2" stroke="#48758d" d="M238,-59C238,-59 12,-59 12,-59 6,-59 0,-53 0,-47 0,-47 0,-12 0,-12 0,-6 6,0 12,0 12,0 238,0 238,0 244,0 250,-6 250,-12 250,-12 250,-47 250,-47 250,-53 244,-59 238,-59"/>
<text xml:space="preserve" text-anchor="middle" x="125" y="-37.9" font-family="Architects Daughter" font-size="18.00">CatalogRequest</text>
<text xml:space="preserve" text-anchor="middle" x="125" y="-12.4" font-family="Architects Daughter" font-size="18.00">rows + providers + timeout</text>
</g>
<!-- step1 -->
<g id="node2" class="node">
<title>step1</title>
<path fill="#edf1e9" stroke="#91a08c" d="M494.5,-59C494.5,-59 327,-59 327,-59 321,-59 315,-53 315,-47 315,-47 315,-12 315,-12 315,-6 321,0 327,0 327,0 494.5,0 494.5,0 500.5,0 506.5,-6 506.5,-12 506.5,-12 506.5,-47 506.5,-47 506.5,-53 500.5,-59 494.5,-59"/>
<text xml:space="preserve" text-anchor="middle" x="410.75" y="-37.9" font-family="Architects Daughter" font-size="18.00">Validate</text>
<text xml:space="preserve" text-anchor="middle" x="410.75" y="-12.4" font-family="Architects Daughter" font-size="18.00">metadata + page size</text>
</g>
<!-- step0&#45;&gt;step1 -->
<g id="edge1" class="edge">
<title>step0&#45;&gt;step1</title>
<path fill="none" stroke="#47616f" stroke-width="2" d="M250.46,-29.5C267.66,-29.5 285.22,-29.5 302.08,-29.5"/>
<polygon fill="#47616f" stroke="#47616f" stroke-width="2" points="301.8,-33 311.8,-29.5 301.8,-26 301.8,-33"/>
</g>
<!-- step2 -->
<g id="node3" class="node">
<title>step2</title>
<path fill="#dbe8d4" stroke="#5d8a62" d="M732.25,-59C732.25,-59 583.5,-59 583.5,-59 577.5,-59 571.5,-53 571.5,-47 571.5,-47 571.5,-12 571.5,-12 571.5,-6 577.5,0 583.5,0 583.5,0 732.25,0 732.25,0 738.25,0 744.25,-6 744.25,-12 744.25,-12 744.25,-47 744.25,-47 744.25,-53 738.25,-59 732.25,-59"/>
<text xml:space="preserve" text-anchor="middle" x="657.88" y="-37.9" font-family="Architects Daughter" font-size="18.00">group + sort</text>
<text xml:space="preserve" text-anchor="middle" x="657.88" y="-12.4" font-family="Architects Daughter" font-size="18.00">deterministic rows</text>
</g>
<!-- step1&#45;&gt;step2 -->
<g id="edge2" class="edge">
<title>step1&#45;&gt;step2</title>
<path fill="none" stroke="#47616f" stroke-width="2" d="M506.87,-29.5C523.71,-29.5 541.27,-29.5 558.21,-29.5"/>
<polygon fill="#47616f" stroke="#47616f" stroke-width="2" points="557.98,-33 567.98,-29.5 557.98,-26 557.98,-33"/>
</g>
<!-- step3 -->
<g id="node4" class="node">
<title>step3</title>
<path fill="#f7e5aa" stroke="#b99b5d" d="M992.5,-59C992.5,-59 821.25,-59 821.25,-59 815.25,-59 809.25,-53 809.25,-47 809.25,-47 809.25,-12 809.25,-12 809.25,-6 815.25,0 821.25,0 821.25,0 992.5,0 992.5,0 998.5,0 1004.5,-6 1004.5,-12 1004.5,-12 1004.5,-47 1004.5,-47 1004.5,-53 998.5,-59 992.5,-59"/>
<text xml:space="preserve" text-anchor="middle" x="906.88" y="-37.9" font-family="Architects Daughter" font-size="18.00">map_bounded_collect</text>
<text xml:space="preserve" text-anchor="middle" x="906.88" y="-12.4" font-family="Architects Daughter" font-size="18.00">provider tasks</text>
</g>
<!-- step2&#45;&gt;step3 -->
<g id="edge3" class="edge">
<title>step2&#45;&gt;step3</title>
<path fill="none" stroke="#47616f" stroke-width="2" d="M744.57,-29.5C761.2,-29.5 778.83,-29.5 796.11,-29.5"/>
<polygon fill="#47616f" stroke="#47616f" stroke-width="2" points="795.88,-33 805.88,-29.5 795.88,-26 795.88,-33"/>
</g>
<!-- step4 -->
<g id="node5" class="node">
<title>step4</title>
<path fill="#f5d3df" stroke="#b95f7a" d="M1247.5,-59C1247.5,-59 1081.5,-59 1081.5,-59 1075.5,-59 1069.5,-53 1069.5,-47 1069.5,-47 1069.5,-12 1069.5,-12 1069.5,-6 1075.5,0 1081.5,0 1081.5,0 1247.5,0 1247.5,0 1253.5,0 1259.5,-6 1259.5,-12 1259.5,-12 1259.5,-47 1259.5,-47 1259.5,-53 1253.5,-59 1247.5,-59"/>
<text xml:space="preserve" text-anchor="middle" x="1164.5" y="-37.9" font-family="Architects Daughter" font-size="18.00">Required failure</text>
<text xml:space="preserve" text-anchor="middle" x="1164.5" y="-12.4" font-family="Architects Daughter" font-size="18.00">typed request error</text>
</g>
<!-- step3&#45;&gt;step4 -->
<g id="edge4" class="edge">
<title>step3&#45;&gt;step4</title>
<path fill="none" stroke="#47616f" stroke-width="2" d="M1004.88,-29.5C1021.65,-29.5 1039.17,-29.5 1056.2,-29.5"/>
<polygon fill="#47616f" stroke="#47616f" stroke-width="2" points="1056.07,-33 1066.07,-29.5 1056.07,-26 1056.07,-33"/>
</g>
<!-- step5 -->
<g id="node6" class="node">
<title>step5</title>
<path fill="#eadcf5" stroke="#8a6bb0" d="M1465.75,-59C1465.75,-59 1336.5,-59 1336.5,-59 1330.5,-59 1324.5,-53 1324.5,-47 1324.5,-47 1324.5,-12 1324.5,-12 1324.5,-6 1330.5,0 1336.5,0 1336.5,0 1465.75,0 1465.75,0 1471.75,0 1477.75,-6 1477.75,-12 1477.75,-12 1477.75,-47 1477.75,-47 1477.75,-53 1471.75,-59 1465.75,-59"/>
<text xml:space="preserve" text-anchor="middle" x="1401.12" y="-37.9" font-family="Architects Daughter" font-size="18.00">Optional failure</text>
<text xml:space="preserve" text-anchor="middle" x="1401.12" y="-12.4" font-family="Architects Daughter" font-size="18.00">product warning</text>
</g>
<!-- step4&#45;&gt;step5 -->
<g id="edge5" class="edge">
<title>step4&#45;&gt;step5</title>
<path fill="none" stroke="#47616f" stroke-width="2" d="M1259.92,-29.5C1276.96,-29.5 1294.68,-29.5 1311.56,-29.5"/>
<polygon fill="#47616f" stroke="#47616f" stroke-width="2" points="1311.24,-33 1321.24,-29.5 1311.24,-26 1311.24,-33"/>
</g>
<!-- step6 -->
<g id="node7" class="node">
<title>step6</title>
<path fill="#dbe8d4" stroke="#5d8a62" d="M1700.5,-59C1700.5,-59 1554.75,-59 1554.75,-59 1548.75,-59 1542.75,-53 1542.75,-47 1542.75,-47 1542.75,-12 1542.75,-12 1542.75,-6 1548.75,0 1554.75,0 1554.75,0 1700.5,0 1700.5,0 1706.5,0 1712.5,-6 1712.5,-12 1712.5,-12 1712.5,-47 1712.5,-47 1712.5,-53 1706.5,-59 1700.5,-59"/>
<text xml:space="preserve" text-anchor="middle" x="1627.62" y="-37.9" font-family="Architects Daughter" font-size="18.00">Page</text>
<text xml:space="preserve" text-anchor="middle" x="1627.62" y="-12.4" font-family="Architects Daughter" font-size="18.00">enriched products</text>
</g>
<!-- step5&#45;&gt;step6 -->
<g id="edge6" class="edge">
<title>step5&#45;&gt;step6</title>
<path fill="none" stroke="#47616f" stroke-width="2" d="M1478.13,-29.5C1494.73,-29.5 1512.52,-29.5 1529.81,-29.5"/>
<polygon fill="#47616f" stroke="#47616f" stroke-width="2" points="1529.57,-33 1539.57,-29.5 1529.57,-26 1529.57,-33"/>
</g>
</g>
</svg>
