<?xml version="1.0" encoding="UTF-8" standalone="no"?>
<!DOCTYPE svg PUBLIC "-//W3C//DTD SVG 1.1//EN"
 "http://www.w3.org/Graphics/SVG/1.1/DTD/svg11.dtd">
<!-- Generated by graphviz version 15.0.0 (20260523.1842)
 -->
<!-- Title: request&#45;tracing&#45;log&#45;capture flow Pages: 1 -->
<svg width="208pt" height="438pt"
 viewBox="0.00 0.00 208.00 438.00" xmlns="http://www.w3.org/2000/svg" xmlns:xlink="http://www.w3.org/1999/xlink">
<g id="graph0" class="graph" transform="scale(1 1) rotate(0) translate(25.2 413.3)">
<title>request&#45;tracing&#45;log&#45;capture flow</title>
<polygon fill="white" stroke="none" points="-25.2,25.2 -25.2,-413.3 182.73,-413.3 182.73,25.2 -25.2,25.2"/>
<!-- request -->
<g id="node1" class="node">
<title>request</title>
<path fill="#e0f2fe" stroke="#1f2937" d="M145.53,-388.1C145.53,-388.1 12,-388.1 12,-388.1 6,-388.1 0,-382.1 0,-376.1 0,-376.1 0,-360.08 0,-360.08 0,-354.08 6,-348.08 12,-348.08 12,-348.08 145.53,-348.08 145.53,-348.08 151.53,-348.08 157.53,-354.08 157.53,-360.08 157.53,-360.08 157.53,-376.1 157.53,-376.1 157.53,-382.1 151.53,-388.1 145.53,-388.1"/>
<text xml:space="preserve" text-anchor="middle" x="78.77" y="-370.94" font-family="Arial" font-size="12.00">Request input</text>
<text xml:space="preserve" text-anchor="middle" x="78.77" y="-356.69" font-family="Arial" font-size="12.00">correlation + route + status</text>
</g>
<!-- validate -->
<g id="node2" class="node">
<title>validate</title>
<path fill="#eef2ff" stroke="#1f2937" d="M128.66,-301.08C128.66,-301.08 28.87,-301.08 28.87,-301.08 22.88,-301.08 16.88,-295.08 16.88,-289.08 16.88,-289.08 16.88,-273.06 16.88,-273.06 16.88,-267.06 22.88,-261.06 28.88,-261.06 28.88,-261.06 128.66,-261.06 128.66,-261.06 134.66,-261.06 140.66,-267.06 140.66,-273.06 140.66,-273.06 140.66,-289.08 140.66,-289.08 140.66,-295.08 134.66,-301.08 128.66,-301.08"/>
<text xml:space="preserve" text-anchor="middle" x="78.77" y="-283.92" font-family="Arial" font-size="12.00">validate route/status</text>
<text xml:space="preserve" text-anchor="middle" x="78.77" y="-269.67" font-family="Arial" font-size="12.00">bluetape&#45;rs&#45;core</text>
</g>
<!-- request&#45;&gt;validate -->
<g id="edge1" class="edge">
<title>request&#45;&gt;validate</title>
<path fill="none" stroke="#334155" d="M78.77,-347.8C78.77,-336.82 78.77,-322.86 78.77,-310.63"/>
<polygon fill="#334155" stroke="#334155" points="81.57,-310.8 78.77,-302.8 75.97,-310.8 81.57,-310.8"/>
</g>
<!-- id -->
<g id="node3" class="node">
<title>id</title>
<path fill="#dcfce7" stroke="#1f2937" d="M124.16,-214.06C124.16,-214.06 33.38,-214.06 33.38,-214.06 27.37,-214.06 21.38,-208.06 21.38,-202.06 21.38,-202.06 21.38,-186.04 21.38,-186.04 21.38,-180.04 27.38,-174.04 33.38,-174.04 33.38,-174.04 124.16,-174.04 124.16,-174.04 130.16,-174.04 136.16,-180.04 136.16,-186.04 136.16,-186.04 136.16,-202.06 136.16,-202.06 136.16,-208.06 130.16,-214.06 124.16,-214.06"/>
<text xml:space="preserve" text-anchor="middle" x="78.77" y="-196.9" font-family="Arial" font-size="12.00">CorrelationId::new</text>
<text xml:space="preserve" text-anchor="middle" x="78.77" y="-182.65" font-family="Arial" font-size="12.00">safe single&#45;line id</text>
</g>
<!-- validate&#45;&gt;id -->
<g id="edge2" class="edge">
<title>validate&#45;&gt;id</title>
<path fill="none" stroke="#334155" d="M78.77,-260.78C78.77,-249.8 78.77,-235.84 78.77,-223.61"/>
<polygon fill="#334155" stroke="#334155" points="81.57,-223.78 78.77,-215.78 75.97,-223.78 81.57,-223.78"/>
</g>
<!-- event -->
<g id="node4" class="node">
<title>event</title>
<path fill="#fef3c7" stroke="#1f2937" d="M120.78,-127.04C120.78,-127.04 36.75,-127.04 36.75,-127.04 30.75,-127.04 24.75,-121.04 24.75,-115.04 24.75,-115.04 24.75,-99.02 24.75,-99.02 24.75,-93.02 30.75,-87.02 36.75,-87.02 36.75,-87.02 120.78,-87.02 120.78,-87.02 126.78,-87.02 132.78,-93.02 132.78,-99.02 132.78,-99.02 132.78,-115.04 132.78,-115.04 132.78,-121.04 126.78,-127.04 120.78,-127.04"/>
<text xml:space="preserve" text-anchor="middle" x="78.77" y="-109.88" font-family="Arial" font-size="12.00">tracing info event</text>
<text xml:space="preserve" text-anchor="middle" x="78.77" y="-95.63" font-family="Arial" font-size="12.00">structured fields</text>
</g>
<!-- id&#45;&gt;event -->
<g id="edge3" class="edge">
<title>id&#45;&gt;event</title>
<path fill="none" stroke="#334155" d="M78.77,-173.76C78.77,-162.78 78.77,-148.82 78.77,-136.59"/>
<polygon fill="#334155" stroke="#334155" points="81.57,-136.76 78.77,-128.76 75.97,-136.76 81.57,-136.76"/>
</g>
<!-- capture -->
<g id="node5" class="node">
<title>capture</title>
<path fill="#fae8ff" stroke="#1f2937" d="M118.53,-40.02C118.53,-40.02 39,-40.02 39,-40.02 33,-40.02 27,-34.02 27,-28.02 27,-28.02 27,-12 27,-12 27,-6 33,0 39,0 39,0 118.53,0 118.53,0 124.53,0 130.53,-6 130.53,-12 130.53,-12 130.53,-28.02 130.53,-28.02 130.53,-34.02 124.53,-40.02 118.53,-40.02"/>
<text xml:space="preserve" text-anchor="middle" x="78.77" y="-22.86" font-family="Arial" font-size="12.00">CapturedLogs</text>
<text xml:space="preserve" text-anchor="middle" x="78.77" y="-8.61" font-family="Arial" font-size="12.00">assert event text</text>
</g>
<!-- event&#45;&gt;capture -->
<g id="edge4" class="edge">
<title>event&#45;&gt;capture</title>
<path fill="none" stroke="#334155" d="M78.77,-86.74C78.77,-75.76 78.77,-61.8 78.77,-49.57"/>
<polygon fill="#334155" stroke="#334155" points="81.57,-49.74 78.77,-41.74 75.97,-49.74 81.57,-49.74"/>
</g>
</g>
</svg>
