<?xml version="1.0" encoding="UTF-8" standalone="no"?>
<!DOCTYPE svg PUBLIC "-//W3C//DTD SVG 1.1//EN"
 "http://www.w3.org/Graphics/SVG/1.1/DTD/svg11.dtd">
<!-- Generated by graphviz version 15.0.0 (20260523.1842)
 -->
<!-- Title: example&#45;request&#45;tracing&#45;log&#45;capture Pages: 1 -->
<svg width="1232pt" height="96pt"
 viewBox="14.00 14.00 1217.00 81.00" xmlns="http://www.w3.org/2000/svg" xmlns:xlink="http://www.w3.org/1999/xlink">
<g id="graph0" class="graph" transform="scale(1 1) rotate(0) translate(18.4 77.4)">
<title>example&#45;request&#45;tracing&#45;log&#45;capture</title>
<polygon fill="#fbfaf6" stroke="none" points="-4,4 -4,-63 1199,-63 1199,4 -4,4"/>
<!-- step0 -->
<g id="node1" class="node">
<title>step0</title>
<path fill="#d7ecf2" stroke="#48758d" d="M244,-59C244,-59 12,-59 12,-59 6,-59 0,-53 0,-47 0,-47 0,-12 0,-12 0,-6 6,0 12,0 12,0 244,0 244,0 250,0 256,-6 256,-12 256,-12 256,-47 256,-47 256,-53 250,-59 244,-59"/>
<text xml:space="preserve" text-anchor="middle" x="128" y="-37.9" font-family="Architects Daughter" font-size="18.00">Request Input</text>
<text xml:space="preserve" text-anchor="middle" x="128" y="-12.4" font-family="Architects Daughter" font-size="18.00">correlation + route + status</text>
</g>
<!-- step1 -->
<g id="node2" class="node">
<title>step1</title>
<path fill="#edf1e9" stroke="#91a08c" d="M511.75,-59C511.75,-59 333,-59 333,-59 327,-59 321,-53 321,-47 321,-47 321,-12 321,-12 321,-6 327,0 333,0 333,0 511.75,0 511.75,0 517.75,0 523.75,-6 523.75,-12 523.75,-12 523.75,-47 523.75,-47 523.75,-53 517.75,-59 511.75,-59"/>
<text xml:space="preserve" text-anchor="middle" x="422.38" y="-37.9" font-family="Architects Daughter" font-size="18.00">Route + Status</text>
<text xml:space="preserve" text-anchor="middle" x="422.38" y="-12.4" font-family="Architects Daughter" font-size="18.00">validate before logging</text>
</g>
<!-- step0&#45;&gt;step1 -->
<g id="edge1" class="edge">
<title>step0&#45;&gt;step1</title>
<path fill="none" stroke="#47616f" stroke-width="2" d="M256.39,-29.5C273.56,-29.5 291.08,-29.5 307.98,-29.5"/>
<polygon fill="#47616f" stroke="#47616f" stroke-width="2" points="307.74,-33 317.74,-29.5 307.74,-26 307.74,-33"/>
</g>
<!-- step2 -->
<g id="node3" class="node">
<title>step2</title>
<path fill="#dbe8d4" stroke="#5d8a62" d="M730.75,-59C730.75,-59 600.75,-59 600.75,-59 594.75,-59 588.75,-53 588.75,-47 588.75,-47 588.75,-12 588.75,-12 588.75,-6 594.75,0 600.75,0 600.75,0 730.75,0 730.75,0 736.75,0 742.75,-6 742.75,-12 742.75,-12 742.75,-47 742.75,-47 742.75,-53 736.75,-59 730.75,-59"/>
<text xml:space="preserve" text-anchor="middle" x="665.75" y="-37.9" font-family="Architects Daughter" font-size="18.00">CorrelationId</text>
<text xml:space="preserve" text-anchor="middle" x="665.75" y="-12.4" font-family="Architects Daughter" font-size="18.00">safe single&#45;line id</text>
</g>
<!-- step1&#45;&gt;step2 -->
<g id="edge2" class="edge">
<title>step1&#45;&gt;step2</title>
<path fill="none" stroke="#47616f" stroke-width="2" d="M523.99,-29.5C541.21,-29.5 558.98,-29.5 575.86,-29.5"/>
<polygon fill="#47616f" stroke="#47616f" stroke-width="2" points="575.55,-33 585.55,-29.5 575.55,-26 575.55,-33"/>
</g>
<!-- step3 -->
<g id="node4" class="node">
<title>step3</title>
<path fill="#f7e5aa" stroke="#b99b5d" d="M955,-59C955,-59 819.75,-59 819.75,-59 813.75,-59 807.75,-53 807.75,-47 807.75,-47 807.75,-12 807.75,-12 807.75,-6 813.75,0 819.75,0 819.75,0 955,0 955,0 961,0 967,-6 967,-12 967,-12 967,-47 967,-47 967,-53 961,-59 955,-59"/>
<text xml:space="preserve" text-anchor="middle" x="887.38" y="-37.9" font-family="Architects Daughter" font-size="18.00">Tracing Event</text>
<text xml:space="preserve" text-anchor="middle" x="887.38" y="-12.4" font-family="Architects Daughter" font-size="18.00">structured fields</text>
</g>
<!-- step2&#45;&gt;step3 -->
<g id="edge3" class="edge">
<title>step2&#45;&gt;step3</title>
<path fill="none" stroke="#47616f" stroke-width="2" d="M742.95,-29.5C759.53,-29.5 777.25,-29.5 794.38,-29.5"/>
<polygon fill="#47616f" stroke="#47616f" stroke-width="2" points="794.3,-33 804.3,-29.5 794.3,-26 794.3,-33"/>
</g>
<!-- step4 -->
<g id="node5" class="node">
<title>step4</title>
<path fill="#eadcf5" stroke="#8a6bb0" d="M1183,-59C1183,-59 1044,-59 1044,-59 1038,-59 1032,-53 1032,-47 1032,-47 1032,-12 1032,-12 1032,-6 1038,0 1044,0 1044,0 1183,0 1183,0 1189,0 1195,-6 1195,-12 1195,-12 1195,-47 1195,-47 1195,-53 1189,-59 1183,-59"/>
<text xml:space="preserve" text-anchor="middle" x="1113.5" y="-37.9" font-family="Architects Daughter" font-size="18.00">CapturedLogs</text>
<text xml:space="preserve" text-anchor="middle" x="1113.5" y="-12.4" font-family="Architects Daughter" font-size="18.00">assert event text</text>
</g>
<!-- step3&#45;&gt;step4 -->
<g id="edge4" class="edge">
<title>step3&#45;&gt;step4</title>
<path fill="none" stroke="#47616f" stroke-width="2" d="M967.39,-29.5C983.96,-29.5 1001.59,-29.5 1018.65,-29.5"/>
<polygon fill="#47616f" stroke="#47616f" stroke-width="2" points="1018.52,-33 1028.52,-29.5 1018.52,-26 1018.52,-33"/>
</g>
</g>
</svg>
