<?xml version="1.0" encoding="UTF-8" standalone="no"?>
<!DOCTYPE svg PUBLIC "-//W3C//DTD SVG 1.1//EN"
 "http://www.w3.org/Graphics/SVG/1.1/DTD/svg11.dtd">
<!-- Generated by graphviz version 15.0.0 (20260523.1842)
 -->
<!-- Title: example&#45;foundation&#45;order&#45;cleanup Pages: 1 -->
<svg width="1536pt" height="96pt"
 viewBox="14.00 14.00 1522.00 81.00" xmlns="http://www.w3.org/2000/svg" xmlns:xlink="http://www.w3.org/1999/xlink">
<g id="graph0" class="graph" transform="scale(1 1) rotate(0) translate(18.4 77.4)">
<title>example&#45;foundation&#45;order&#45;cleanup</title>
<polygon fill="#fbfaf6" stroke="none" points="-4,4 -4,-63 1503.5,-63 1503.5,4 -4,4"/>
<!-- step0 -->
<g id="node1" class="node">
<title>step0</title>
<path fill="#d7ecf2" stroke="#48758d" d="M205,-59C205,-59 12,-59 12,-59 6,-59 0,-53 0,-47 0,-47 0,-12 0,-12 0,-6 6,0 12,0 12,0 205,0 205,0 211,0 217,-6 217,-12 217,-12 217,-47 217,-47 217,-53 211,-59 205,-59"/>
<text xml:space="preserve" text-anchor="middle" x="108.5" y="-37.9" font-family="Architects Daughter" font-size="18.00">PartnerRow</text>
<text xml:space="preserve" text-anchor="middle" x="108.5" y="-12.4" font-family="Architects Daughter" font-size="18.00">raw tenant/order/items</text>
</g>
<!-- step1 -->
<g id="node2" class="node">
<title>step1</title>
<path fill="#edf1e9" stroke="#91a08c" d="M439,-59C439,-59 294,-59 294,-59 288,-59 282,-53 282,-47 282,-47 282,-12 282,-12 282,-6 288,0 294,0 294,0 439,0 439,0 445,0 451,-6 451,-12 451,-12 451,-47 451,-47 451,-53 445,-59 439,-59"/>
<text xml:space="preserve" text-anchor="middle" x="366.5" y="-37.9" font-family="Architects Daughter" font-size="18.00">Required fields</text>
<text xml:space="preserve" text-anchor="middle" x="366.5" y="-12.4" font-family="Architects Daughter" font-size="18.00">require_not_blank</text>
</g>
<!-- step0&#45;&gt;step1 -->
<g id="edge1" class="edge">
<title>step0&#45;&gt;step1</title>
<path fill="none" stroke="#47616f" stroke-width="2" d="M217.33,-29.5C234.42,-29.5 252.01,-29.5 268.83,-29.5"/>
<polygon fill="#47616f" stroke="#47616f" stroke-width="2" points="268.49,-33 278.49,-29.5 268.49,-26 268.49,-33"/>
</g>
<!-- step2 -->
<g id="node3" class="node">
<title>step2</title>
<path fill="#dbe8d4" stroke="#5d8a62" d="M661.75,-59C661.75,-59 528,-59 528,-59 522,-59 516,-53 516,-47 516,-47 516,-12 516,-12 516,-6 522,0 528,0 528,0 661.75,0 661.75,0 667.75,0 673.75,-6 673.75,-12 673.75,-12 673.75,-47 673.75,-47 673.75,-53 667.75,-59 661.75,-59"/>
<text xml:space="preserve" text-anchor="middle" x="594.88" y="-37.9" font-family="Architects Daughter" font-size="18.00">Optional defaults</text>
<text xml:space="preserve" text-anchor="middle" x="594.88" y="-12.4" font-family="Architects Daughter" font-size="18.00">blank_to_default</text>
</g>
<!-- step1&#45;&gt;step2 -->
<g id="edge2" class="edge">
<title>step1&#45;&gt;step2</title>
<path fill="none" stroke="#47616f" stroke-width="2" d="M451.47,-29.5C468.22,-29.5 485.88,-29.5 502.85,-29.5"/>
<polygon fill="#47616f" stroke="#47616f" stroke-width="2" points="502.63,-33 512.63,-29.5 502.63,-26 502.63,-33"/>
</g>
<!-- step3 -->
<g id="node4" class="node">
<title>step3</title>
<path fill="#f5d3df" stroke="#b95f7a" d="M967,-59C967,-59 750.75,-59 750.75,-59 744.75,-59 738.75,-53 738.75,-47 738.75,-47 738.75,-12 738.75,-12 738.75,-6 744.75,0 750.75,0 750.75,0 967,0 967,0 973,0 979,-6 979,-12 979,-12 979,-47 979,-47 979,-53 973,-59 967,-59"/>
<text xml:space="preserve" text-anchor="middle" x="858.88" y="-37.9" font-family="Architects Daughter" font-size="18.00">Invalid items</text>
<text xml:space="preserve" text-anchor="middle" x="858.88" y="-12.4" font-family="Architects Daughter" font-size="18.00">skip blank sku or qty &lt;= 0</text>
</g>
<!-- step2&#45;&gt;step3 -->
<g id="edge3" class="edge">
<title>step2&#45;&gt;step3</title>
<path fill="none" stroke="#47616f" stroke-width="2" d="M674.13,-29.5C690.39,-29.5 707.95,-29.5 725.54,-29.5"/>
<polygon fill="#47616f" stroke="#47616f" stroke-width="2" points="725.31,-33 735.31,-29.5 725.31,-26 725.31,-33"/>
</g>
<!-- step4 -->
<g id="node5" class="node">
<title>step4</title>
<path fill="#f7e5aa" stroke="#b99b5d" d="M1246.75,-59C1246.75,-59 1056,-59 1056,-59 1050,-59 1044,-53 1044,-47 1044,-47 1044,-12 1044,-12 1044,-6 1050,0 1056,0 1056,0 1246.75,0 1246.75,0 1252.75,0 1258.75,-6 1258.75,-12 1258.75,-12 1258.75,-47 1258.75,-47 1258.75,-53 1252.75,-59 1246.75,-59"/>
<text xml:space="preserve" text-anchor="middle" x="1151.38" y="-37.9" font-family="Architects Daughter" font-size="18.00">CleanupReport</text>
<text xml:space="preserve" text-anchor="middle" x="1151.38" y="-12.4" font-family="Architects Daughter" font-size="18.00">orders + skipped count</text>
</g>
<!-- step3&#45;&gt;step4 -->
<g id="edge4" class="edge">
<title>step3&#45;&gt;step4</title>
<path fill="none" stroke="#47616f" stroke-width="2" d="M979.29,-29.5C996.25,-29.5 1013.7,-29.5 1030.66,-29.5"/>
<polygon fill="#47616f" stroke="#47616f" stroke-width="2" points="1030.5,-33 1040.5,-29.5 1030.5,-26 1030.5,-33"/>
</g>
<!-- step5 -->
<g id="node6" class="node">
<title>step5</title>
<path fill="#eadcf5" stroke="#8a6bb0" d="M1487.5,-59C1487.5,-59 1335.75,-59 1335.75,-59 1329.75,-59 1323.75,-53 1323.75,-47 1323.75,-47 1323.75,-12 1323.75,-12 1323.75,-6 1329.75,0 1335.75,0 1335.75,0 1487.5,0 1487.5,0 1493.5,0 1499.5,-6 1499.5,-12 1499.5,-12 1499.5,-47 1499.5,-47 1499.5,-53 1493.5,-59 1487.5,-59"/>
<text xml:space="preserve" text-anchor="middle" x="1411.62" y="-37.9" font-family="Architects Daughter" font-size="18.00">CapturedLogs</text>
<text xml:space="preserve" text-anchor="middle" x="1411.62" y="-12.4" font-family="Architects Daughter" font-size="18.00">correlation.id event</text>
</g>
<!-- step4&#45;&gt;step5 -->
<g id="edge5" class="edge">
<title>step4&#45;&gt;step5</title>
<path fill="none" stroke="#47616f" stroke-width="2" d="M1258.91,-29.5C1276.07,-29.5 1293.78,-29.5 1310.78,-29.5"/>
<polygon fill="#47616f" stroke="#47616f" stroke-width="2" points="1310.59,-33 1320.59,-29.5 1310.59,-26 1310.59,-33"/>
</g>
</g>
</svg>
