<?xml version="1.0" encoding="UTF-8" standalone="no"?>
<!DOCTYPE svg PUBLIC "-//W3C//DTD SVG 1.1//EN"
 "http://www.w3.org/Graphics/SVG/1.1/DTD/svg11.dtd">
<!-- Generated by graphviz version 15.0.0 (20260523.1842)
 -->
<!-- Title: example&#45;shutdown&#45;aware&#45;worker Pages: 1 -->
<svg width="1639pt" height="96pt"
 viewBox="14.00 14.00 1625.00 81.00" xmlns="http://www.w3.org/2000/svg" xmlns:xlink="http://www.w3.org/1999/xlink">
<g id="graph0" class="graph" transform="scale(1 1) rotate(0) translate(18.4 77.4)">
<title>example&#45;shutdown&#45;aware&#45;worker</title>
<polygon fill="#fbfaf6" stroke="none" points="-4,4 -4,-63 1606.25,-63 1606.25,4 -4,4"/>
<!-- step0 -->
<g id="node1" class="node">
<title>step0</title>
<path fill="#d7ecf2" stroke="#48758d" d="M251.5,-59C251.5,-59 12,-59 12,-59 6,-59 0,-53 0,-47 0,-47 0,-12 0,-12 0,-6 6,0 12,0 12,0 251.5,0 251.5,0 257.5,0 263.5,-6 263.5,-12 263.5,-12 263.5,-47 263.5,-47 263.5,-53 257.5,-59 251.5,-59"/>
<text xml:space="preserve" text-anchor="middle" x="131.75" y="-37.9" font-family="Architects Daughter" font-size="18.00">WorkerConfig</text>
<text xml:space="preserve" text-anchor="middle" x="131.75" y="-12.4" font-family="Architects Daughter" font-size="18.00">correlation + timeout + items</text>
</g>
<!-- step1 -->
<g id="node2" class="node">
<title>step1</title>
<path fill="#edf1e9" stroke="#91a08c" d="M523.75,-59C523.75,-59 340.5,-59 340.5,-59 334.5,-59 328.5,-53 328.5,-47 328.5,-47 328.5,-12 328.5,-12 328.5,-6 334.5,0 340.5,0 340.5,0 523.75,0 523.75,0 529.75,0 535.75,-6 535.75,-12 535.75,-12 535.75,-47 535.75,-47 535.75,-53 529.75,-59 523.75,-59"/>
<text xml:space="preserve" text-anchor="middle" x="432.12" y="-37.9" font-family="Architects Daughter" font-size="18.00">Validate</text>
<text xml:space="preserve" text-anchor="middle" x="432.12" y="-12.4" font-family="Architects Daughter" font-size="18.00">batch size + item keys</text>
</g>
<!-- step0&#45;&gt;step1 -->
<g id="edge1" class="edge">
<title>step0&#45;&gt;step1</title>
<path fill="none" stroke="#47616f" stroke-width="2" d="M263.62,-29.5C280.84,-29.5 298.39,-29.5 315.33,-29.5"/>
<polygon fill="#47616f" stroke="#47616f" stroke-width="2" points="315.13,-33 325.13,-29.5 315.13,-26 315.13,-33"/>
</g>
<!-- step2 -->
<g id="node3" class="node">
<title>step2</title>
<path fill="#dbe8d4" stroke="#5d8a62" d="M684.25,-59C684.25,-59 612.75,-59 612.75,-59 606.75,-59 600.75,-53 600.75,-47 600.75,-47 600.75,-12 600.75,-12 600.75,-6 606.75,0 612.75,0 612.75,0 684.25,0 684.25,0 690.25,0 696.25,-6 696.25,-12 696.25,-12 696.25,-47 696.25,-47 696.25,-53 690.25,-59 684.25,-59"/>
<text xml:space="preserve" text-anchor="middle" x="648.5" y="-37.9" font-family="Architects Daughter" font-size="18.00">group_by</text>
<text xml:space="preserve" text-anchor="middle" x="648.5" y="-12.4" font-family="Architects Daughter" font-size="18.00">queue</text>
</g>
<!-- step1&#45;&gt;step2 -->
<g id="edge2" class="edge">
<title>step1&#45;&gt;step2</title>
<path fill="none" stroke="#47616f" stroke-width="2" d="M536.23,-29.5C553.75,-29.5 571.4,-29.5 587.34,-29.5"/>
<polygon fill="#47616f" stroke="#47616f" stroke-width="2" points="587.24,-33 597.24,-29.5 587.24,-26 587.24,-33"/>
</g>
<!-- step3 -->
<g id="node4" class="node">
<title>step3</title>
<path fill="#f7e5aa" stroke="#b99b5d" d="M923.5,-59C923.5,-59 773.25,-59 773.25,-59 767.25,-59 761.25,-53 761.25,-47 761.25,-47 761.25,-12 761.25,-12 761.25,-6 767.25,0 773.25,0 773.25,0 923.5,0 923.5,0 929.5,0 935.5,-6 935.5,-12 935.5,-12 935.5,-47 935.5,-47 935.5,-53 929.5,-59 923.5,-59"/>
<text xml:space="preserve" text-anchor="middle" x="848.38" y="-37.9" font-family="Architects Daughter" font-size="18.00">chunks</text>
<text xml:space="preserve" text-anchor="middle" x="848.38" y="-12.4" font-family="Architects Daughter" font-size="18.00">bounded batch size</text>
</g>
<!-- step2&#45;&gt;step3 -->
<g id="edge3" class="edge">
<title>step2&#45;&gt;step3</title>
<path fill="none" stroke="#47616f" stroke-width="2" d="M696.64,-29.5C712.27,-29.5 730.29,-29.5 748.31,-29.5"/>
<polygon fill="#47616f" stroke="#47616f" stroke-width="2" points="748.05,-33 758.05,-29.5 748.05,-26 748.05,-33"/>
</g>
<!-- step4 -->
<g id="node5" class="node">
<title>step4</title>
<path fill="#f5d3df" stroke="#b95f7a" d="M1133.5,-59C1133.5,-59 1012.5,-59 1012.5,-59 1006.5,-59 1000.5,-53 1000.5,-47 1000.5,-47 1000.5,-12 1000.5,-12 1000.5,-6 1006.5,0 1012.5,0 1012.5,0 1133.5,0 1133.5,0 1139.5,0 1145.5,-6 1145.5,-12 1145.5,-12 1145.5,-47 1145.5,-47 1145.5,-53 1139.5,-59 1133.5,-59"/>
<text xml:space="preserve" text-anchor="middle" x="1073" y="-37.9" font-family="Architects Daughter" font-size="18.00">with_timeout</text>
<text xml:space="preserve" text-anchor="middle" x="1073" y="-12.4" font-family="Architects Daughter" font-size="18.00">typed TimedOut</text>
</g>
<!-- step3&#45;&gt;step4 -->
<g id="edge4" class="edge">
<title>step3&#45;&gt;step4</title>
<path fill="none" stroke="#47616f" stroke-width="2" d="M935.77,-29.5C952.71,-29.5 970.47,-29.5 987.36,-29.5"/>
<polygon fill="#47616f" stroke="#47616f" stroke-width="2" points="987.05,-33 997.05,-29.5 987.05,-26 987.05,-33"/>
</g>
<!-- step5 -->
<g id="node6" class="node">
<title>step5</title>
<path fill="#eadcf5" stroke="#8a6bb0" d="M1345.75,-59C1345.75,-59 1222.5,-59 1222.5,-59 1216.5,-59 1210.5,-53 1210.5,-47 1210.5,-47 1210.5,-12 1210.5,-12 1210.5,-6 1216.5,0 1222.5,0 1222.5,0 1345.75,0 1345.75,0 1351.75,0 1357.75,-6 1357.75,-12 1357.75,-12 1357.75,-47 1357.75,-47 1357.75,-53 1351.75,-59 1345.75,-59"/>
<text xml:space="preserve" text-anchor="middle" x="1284.12" y="-37.9" font-family="Architects Daughter" font-size="18.00">shutdown_signal</text>
<text xml:space="preserve" text-anchor="middle" x="1284.12" y="-12.4" font-family="Architects Daughter" font-size="18.00">typed Cancelled</text>
</g>
<!-- step4&#45;&gt;step5 -->
<g id="edge5" class="edge">
<title>step4&#45;&gt;step5</title>
<path fill="none" stroke="#47616f" stroke-width="2" d="M1145.97,-29.5C1162.54,-29.5 1180.32,-29.5 1197.41,-29.5"/>
<polygon fill="#47616f" stroke="#47616f" stroke-width="2" points="1197.29,-33 1207.29,-29.5 1197.29,-26 1197.29,-33"/>
</g>
<!-- step6 -->
<g id="node7" class="node">
<title>step6</title>
<path fill="#dbe8d4" stroke="#5d8a62" d="M1590.25,-59C1590.25,-59 1434.75,-59 1434.75,-59 1428.75,-59 1422.75,-53 1422.75,-47 1422.75,-47 1422.75,-12 1422.75,-12 1422.75,-6 1428.75,0 1434.75,0 1434.75,0 1590.25,0 1590.25,0 1596.25,0 1602.25,-6 1602.25,-12 1602.25,-12 1602.25,-47 1602.25,-47 1602.25,-53 1596.25,-59 1590.25,-59"/>
<text xml:space="preserve" text-anchor="middle" x="1512.5" y="-37.9" font-family="Architects Daughter" font-size="18.00">WorkerReport</text>
<text xml:space="preserve" text-anchor="middle" x="1512.5" y="-12.4" font-family="Architects Daughter" font-size="18.00">status + processed</text>
</g>
<!-- step5&#45;&gt;step6 -->
<g id="edge6" class="edge">
<title>step5&#45;&gt;step6</title>
<path fill="none" stroke="#47616f" stroke-width="2" d="M1358,-29.5C1374.45,-29.5 1392.22,-29.5 1409.62,-29.5"/>
<polygon fill="#47616f" stroke="#47616f" stroke-width="2" points="1409.49,-33 1419.49,-29.5 1409.49,-26 1409.49,-33"/>
</g>
</g>
</svg>
