<?xml version="1.0" encoding="UTF-8" standalone="no"?>
<!DOCTYPE svg PUBLIC "-//W3C//DTD SVG 1.1//EN"
 "http://www.w3.org/Graphics/SVG/1.1/DTD/svg11.dtd">
<!-- Generated by graphviz version 15.0.0 (20260523.1842)
 -->
<!-- Title: example&#45;temp&#45;resource&#45;test&#45;harness Pages: 1 -->
<svg width="1209pt" height="96pt"
 viewBox="14.00 14.00 1195.00 81.00" xmlns="http://www.w3.org/2000/svg" xmlns:xlink="http://www.w3.org/1999/xlink">
<g id="graph0" class="graph" transform="scale(1 1) rotate(0) translate(18.4 77.4)">
<title>example&#45;temp&#45;resource&#45;test&#45;harness</title>
<polygon fill="#fbfaf6" stroke="none" points="-4,4 -4,-63 1176.5,-63 1176.5,4 -4,4"/>
<!-- step0 -->
<g id="node1" class="node">
<title>step0</title>
<path fill="#d7ecf2" stroke="#48758d" d="M160,-59C160,-59 12,-59 12,-59 6,-59 0,-53 0,-47 0,-47 0,-12 0,-12 0,-6 6,0 12,0 12,0 160,0 160,0 166,0 172,-6 172,-12 172,-12 172,-47 172,-47 172,-53 166,-59 160,-59"/>
<text xml:space="preserve" text-anchor="middle" x="86" y="-37.9" font-family="Architects Daughter" font-size="18.00">ScratchConfig</text>
<text xml:space="preserve" text-anchor="middle" x="86" y="-12.4" font-family="Architects Daughter" font-size="18.00">prefix + file_name</text>
</g>
<!-- step1 -->
<g id="node2" class="node">
<title>step1</title>
<path fill="#edf1e9" stroke="#91a08c" d="M508.75,-59C508.75,-59 249,-59 249,-59 243,-59 237,-53 237,-47 237,-47 237,-12 237,-12 237,-6 243,0 249,0 249,0 508.75,0 508.75,0 514.75,0 520.75,-6 520.75,-12 520.75,-12 520.75,-47 520.75,-47 520.75,-53 514.75,-59 508.75,-59"/>
<text xml:space="preserve" text-anchor="middle" x="378.88" y="-37.9" font-family="Architects Daughter" font-size="18.00">Path Safety</text>
<text xml:space="preserve" text-anchor="middle" x="378.88" y="-12.4" font-family="Architects Daughter" font-size="18.00">reject absolute or parent paths</text>
</g>
<!-- step0&#45;&gt;step1 -->
<g id="edge1" class="edge">
<title>step0&#45;&gt;step1</title>
<path fill="none" stroke="#47616f" stroke-width="2" d="M172.31,-29.5C188.56,-29.5 206.03,-29.5 223.68,-29.5"/>
<polygon fill="#47616f" stroke="#47616f" stroke-width="2" points="223.51,-33 233.51,-29.5 223.51,-26 223.51,-33"/>
</g>
<!-- step2 -->
<g id="node3" class="node">
<title>step2</title>
<path fill="#dbe8d4" stroke="#5d8a62" d="M752.5,-59C752.5,-59 597.75,-59 597.75,-59 591.75,-59 585.75,-53 585.75,-47 585.75,-47 585.75,-12 585.75,-12 585.75,-6 591.75,0 597.75,0 597.75,0 752.5,0 752.5,0 758.5,0 764.5,-6 764.5,-12 764.5,-12 764.5,-47 764.5,-47 764.5,-53 758.5,-59 752.5,-59"/>
<text xml:space="preserve" text-anchor="middle" x="675.12" y="-37.9" font-family="Architects Daughter" font-size="18.00">TempDir</text>
<text xml:space="preserve" text-anchor="middle" x="675.12" y="-12.4" font-family="Architects Daughter" font-size="18.00">isolated workspace</text>
</g>
<!-- step1&#45;&gt;step2 -->
<g id="edge2" class="edge">
<title>step1&#45;&gt;step2</title>
<path fill="none" stroke="#47616f" stroke-width="2" d="M520.97,-29.5C538.48,-29.5 556.11,-29.5 572.85,-29.5"/>
<polygon fill="#47616f" stroke="#47616f" stroke-width="2" points="572.44,-33 582.44,-29.5 572.44,-26 572.44,-33"/>
</g>
<!-- step3 -->
<g id="node4" class="node">
<title>step3</title>
<path fill="#f7e5aa" stroke="#b99b5d" d="M938.5,-59C938.5,-59 841.5,-59 841.5,-59 835.5,-59 829.5,-53 829.5,-47 829.5,-47 829.5,-12 829.5,-12 829.5,-6 835.5,0 841.5,0 841.5,0 938.5,0 938.5,0 944.5,0 950.5,-6 950.5,-12 950.5,-12 950.5,-47 950.5,-47 950.5,-53 944.5,-59 938.5,-59"/>
<text xml:space="preserve" text-anchor="middle" x="890" y="-37.9" font-family="Architects Daughter" font-size="18.00">Scratch File</text>
<text xml:space="preserve" text-anchor="middle" x="890" y="-12.4" font-family="Architects Daughter" font-size="18.00">write rows</text>
</g>
<!-- step2&#45;&gt;step3 -->
<g id="edge3" class="edge">
<title>step2&#45;&gt;step3</title>
<path fill="none" stroke="#47616f" stroke-width="2" d="M764.86,-29.5C781.97,-29.5 799.7,-29.5 816.22,-29.5"/>
<polygon fill="#47616f" stroke="#47616f" stroke-width="2" points="816.15,-33 826.15,-29.5 816.15,-26 816.15,-33"/>
</g>
<!-- step4 -->
<g id="node5" class="node">
<title>step4</title>
<path fill="#eadcf5" stroke="#8a6bb0" d="M1160.5,-59C1160.5,-59 1027.5,-59 1027.5,-59 1021.5,-59 1015.5,-53 1015.5,-47 1015.5,-47 1015.5,-12 1015.5,-12 1015.5,-6 1021.5,0 1027.5,0 1027.5,0 1160.5,0 1160.5,0 1166.5,0 1172.5,-6 1172.5,-12 1172.5,-12 1172.5,-47 1172.5,-47 1172.5,-53 1166.5,-59 1160.5,-59"/>
<text xml:space="preserve" text-anchor="middle" x="1094" y="-37.9" font-family="Architects Daughter" font-size="18.00">Close</text>
<text xml:space="preserve" text-anchor="middle" x="1094" y="-12.4" font-family="Architects Daughter" font-size="18.00">remove temp dir</text>
</g>
<!-- step3&#45;&gt;step4 -->
<g id="edge4" class="edge">
<title>step3&#45;&gt;step4</title>
<path fill="none" stroke="#47616f" stroke-width="2" d="M950.79,-29.5C967,-29.5 984.92,-29.5 1002.41,-29.5"/>
<polygon fill="#47616f" stroke="#47616f" stroke-width="2" points="1002.34,-33 1012.34,-29.5 1002.34,-26 1002.34,-33"/>
</g>
</g>
</svg>
