<?xml version="1.0" encoding="UTF-8" standalone="no"?>
<!DOCTYPE svg PUBLIC "-//W3C//DTD SVG 1.1//EN"
 "http://www.w3.org/Graphics/SVG/1.1/DTD/svg11.dtd">
<!-- Generated by graphviz version 15.0.0 (20260523.1842)
 -->
<!-- Title: example&#45;batched&#45;order&#45;windowing Pages: 1 -->
<svg width="1530pt" height="96pt"
 viewBox="14.00 14.00 1516.00 81.00" xmlns="http://www.w3.org/2000/svg" xmlns:xlink="http://www.w3.org/1999/xlink">
<g id="graph0" class="graph" transform="scale(1 1) rotate(0) translate(18.4 77.4)">
<title>example&#45;batched&#45;order&#45;windowing</title>
<polygon fill="#fbfaf6" stroke="none" points="-4,4 -4,-63 1497.5,-63 1497.5,4 -4,4"/>
<!-- step0 -->
<g id="node1" class="node">
<title>step0</title>
<path fill="#d7ecf2" stroke="#48758d" d="M238,-59C238,-59 12,-59 12,-59 6,-59 0,-53 0,-47 0,-47 0,-12 0,-12 0,-6 6,0 12,0 12,0 238,0 238,0 244,0 250,-6 250,-12 250,-12 250,-47 250,-47 250,-53 244,-59 238,-59"/>
<text xml:space="preserve" text-anchor="middle" x="125" y="-37.9" font-family="Architects Daughter" font-size="18.00">BatchRun</text>
<text xml:space="preserve" text-anchor="middle" x="125" y="-12.4" font-family="Architects Daughter" font-size="18.00">correlation + page + events</text>
</g>
<!-- step1 -->
<g id="node2" class="node">
<title>step1</title>
<path fill="#edf1e9" stroke="#91a08c" d="M548.5,-59C548.5,-59 327,-59 327,-59 321,-59 315,-53 315,-47 315,-47 315,-12 315,-12 315,-6 321,0 327,0 327,0 548.5,0 548.5,0 554.5,0 560.5,-6 560.5,-12 560.5,-12 560.5,-47 560.5,-47 560.5,-53 554.5,-59 548.5,-59"/>
<text xml:space="preserve" text-anchor="middle" x="437.75" y="-37.9" font-family="Architects Daughter" font-size="18.00">Validate</text>
<text xml:space="preserve" text-anchor="middle" x="437.75" y="-12.4" font-family="Architects Daughter" font-size="18.00">required text + positive qty</text>
</g>
<!-- step0&#45;&gt;step1 -->
<g id="edge1" class="edge">
<title>step0&#45;&gt;step1</title>
<path fill="none" stroke="#47616f" stroke-width="2" d="M250.16,-29.5C267.06,-29.5 284.48,-29.5 301.57,-29.5"/>
<polygon fill="#47616f" stroke="#47616f" stroke-width="2" points="301.54,-33 311.54,-29.5 301.54,-26 301.54,-33"/>
</g>
<!-- step2 -->
<g id="node3" class="node">
<title>step2</title>
<path fill="#dbe8d4" stroke="#5d8a62" d="M766,-59C766,-59 637.5,-59 637.5,-59 631.5,-59 625.5,-53 625.5,-47 625.5,-47 625.5,-12 625.5,-12 625.5,-6 631.5,0 637.5,0 637.5,0 766,0 766,0 772,0 778,-6 778,-12 778,-12 778,-47 778,-47 778,-53 772,-59 766,-59"/>
<text xml:space="preserve" text-anchor="middle" x="701.75" y="-37.9" font-family="Architects Daughter" font-size="18.00">group_by</text>
<text xml:space="preserve" text-anchor="middle" x="701.75" y="-12.4" font-family="Architects Daughter" font-size="18.00">tenant + channel</text>
</g>
<!-- step1&#45;&gt;step2 -->
<g id="edge2" class="edge">
<title>step1&#45;&gt;step2</title>
<path fill="none" stroke="#47616f" stroke-width="2" d="M560.93,-29.5C578.19,-29.5 595.66,-29.5 612.13,-29.5"/>
<polygon fill="#47616f" stroke="#47616f" stroke-width="2" points="612.07,-33 622.07,-29.5 612.07,-26 612.07,-33"/>
</g>
<!-- step3 -->
<g id="node4" class="node">
<title>step3</title>
<path fill="#f7e5aa" stroke="#b99b5d" d="M1012,-59C1012,-59 855,-59 855,-59 849,-59 843,-53 843,-47 843,-47 843,-12 843,-12 843,-6 849,0 855,0 855,0 1012,0 1012,0 1018,0 1024,-6 1024,-12 1024,-12 1024,-47 1024,-47 1024,-53 1018,-59 1012,-59"/>
<text xml:space="preserve" text-anchor="middle" x="933.5" y="-37.9" font-family="Architects Daughter" font-size="18.00">sort</text>
<text xml:space="preserve" text-anchor="middle" x="933.5" y="-12.4" font-family="Architects Daughter" font-size="18.00">stable output order</text>
</g>
<!-- step2&#45;&gt;step3 -->
<g id="edge3" class="edge">
<title>step2&#45;&gt;step3</title>
<path fill="none" stroke="#47616f" stroke-width="2" d="M778.3,-29.5C794.74,-29.5 812.41,-29.5 829.7,-29.5"/>
<polygon fill="#47616f" stroke="#47616f" stroke-width="2" points="829.49,-33 839.49,-29.5 829.49,-26 829.49,-33"/>
</g>
<!-- step4 -->
<g id="node5" class="node">
<title>step4</title>
<path fill="#eadcf5" stroke="#8a6bb0" d="M1239.25,-59C1239.25,-59 1101,-59 1101,-59 1095,-59 1089,-53 1089,-47 1089,-47 1089,-12 1089,-12 1089,-6 1095,0 1101,0 1101,0 1239.25,0 1239.25,0 1245.25,0 1251.25,-6 1251.25,-12 1251.25,-12 1251.25,-47 1251.25,-47 1251.25,-53 1245.25,-59 1239.25,-59"/>
<text xml:space="preserve" text-anchor="middle" x="1170.12" y="-37.9" font-family="Architects Daughter" font-size="18.00">chunks</text>
<text xml:space="preserve" text-anchor="middle" x="1170.12" y="-12.4" font-family="Architects Daughter" font-size="18.00">page&#45;size batches</text>
</g>
<!-- step3&#45;&gt;step4 -->
<g id="edge4" class="edge">
<title>step3&#45;&gt;step4</title>
<path fill="none" stroke="#47616f" stroke-width="2" d="M1024.21,-29.5C1041.11,-29.5 1058.83,-29.5 1075.84,-29.5"/>
<polygon fill="#47616f" stroke="#47616f" stroke-width="2" points="1075.66,-33 1085.66,-29.5 1075.66,-26 1075.66,-33"/>
</g>
<!-- step5 -->
<g id="node6" class="node">
<title>step5</title>
<path fill="#dbe8d4" stroke="#5d8a62" d="M1481.5,-59C1481.5,-59 1328.25,-59 1328.25,-59 1322.25,-59 1316.25,-53 1316.25,-47 1316.25,-47 1316.25,-12 1316.25,-12 1316.25,-6 1322.25,0 1328.25,0 1328.25,0 1481.5,0 1481.5,0 1487.5,0 1493.5,-6 1493.5,-12 1493.5,-12 1493.5,-47 1493.5,-47 1493.5,-53 1487.5,-59 1481.5,-59"/>
<text xml:space="preserve" text-anchor="middle" x="1404.88" y="-37.9" font-family="Architects Daughter" font-size="18.00">Page</text>
<text xml:space="preserve" text-anchor="middle" x="1404.88" y="-12.4" font-family="Architects Daughter" font-size="18.00">items + total_items</text>
</g>
<!-- step4&#45;&gt;step5 -->
<g id="edge5" class="edge">
<title>step4&#45;&gt;step5</title>
<path fill="none" stroke="#47616f" stroke-width="2" d="M1251.55,-29.5C1268.09,-29.5 1285.71,-29.5 1302.88,-29.5"/>
<polygon fill="#47616f" stroke="#47616f" stroke-width="2" points="1302.86,-33 1312.86,-29.5 1302.86,-26 1302.86,-33"/>
</g>
</g>
</svg>
