<?xml version="1.0" encoding="UTF-8" standalone="no"?>
<!DOCTYPE svg PUBLIC "-//W3C//DTD SVG 1.1//EN"
 "http://www.w3.org/Graphics/SVG/1.1/DTD/svg11.dtd">
<!-- Generated by graphviz version 15.0.0 (20260523.1842)
 -->
<!-- Title: workshop&#45;foundation&#45;architecture Pages: 1 -->
<svg width="1207pt" height="321pt"
 viewBox="14.00 14.00 1193.00 306.00" xmlns="http://www.w3.org/2000/svg" xmlns:xlink="http://www.w3.org/1999/xlink">
<g id="graph0" class="graph" transform="scale(1 1) rotate(0) translate(18.4 302.4)">
<title>workshop&#45;foundation&#45;architecture</title>
<polygon fill="#fbfaf6" stroke="none" points="-4,4 -4,-288 1174.25,-288 1174.25,4 -4,4"/>
<!-- input -->
<g id="node1" class="node">
<title>input</title>
<path fill="#d7ecf2" stroke="#48758d" d="M247.75,-284C247.75,-284 12,-284 12,-284 6,-284 0,-278 0,-272 0,-272 0,-237 0,-237 0,-231 6,-225 12,-225 12,-225 247.75,-225 247.75,-225 253.75,-225 259.75,-231 259.75,-237 259.75,-237 259.75,-272 259.75,-272 259.75,-278 253.75,-284 247.75,-284"/>
<text xml:space="preserve" text-anchor="middle" x="129.88" y="-262.9" font-family="Architects Daughter" font-size="18.00">Partner Order Input</text>
<text xml:space="preserve" text-anchor="middle" x="129.88" y="-237.4" font-family="Architects Daughter" font-size="18.00">raw rows + request context</text>
</g>
<!-- cleanup -->
<g id="node2" class="node">
<title>cleanup</title>
<path fill="#dbe8d4" stroke="#5d8a62" d="M535.75,-228C535.75,-228 336.75,-228 336.75,-228 330.75,-228 324.75,-222 324.75,-216 324.75,-216 324.75,-181 324.75,-181 324.75,-175 330.75,-169 336.75,-169 336.75,-169 535.75,-169 535.75,-169 541.75,-169 547.75,-175 547.75,-181 547.75,-181 547.75,-216 547.75,-216 547.75,-222 541.75,-228 535.75,-228"/>
<text xml:space="preserve" text-anchor="middle" x="436.25" y="-206.9" font-family="Architects Daughter" font-size="18.00">foundation&#45;order&#45;cleanup</text>
<text xml:space="preserve" text-anchor="middle" x="436.25" y="-181.4" font-family="Architects Daughter" font-size="18.00">validate + normalize</text>
</g>
<!-- input&#45;&gt;cleanup -->
<g id="edge1" class="edge">
<title>input&#45;&gt;cleanup</title>
<path fill="none" stroke="#47616f" stroke-width="2" d="M259.96,-230.75C277.21,-227.58 294.88,-224.33 312.03,-221.17"/>
<polygon fill="#47616f" stroke="#47616f" stroke-width="2" points="312.54,-224.63 321.74,-219.38 311.28,-217.75 312.54,-224.63"/>
</g>
<!-- tracing -->
<g id="node3" class="node">
<title>tracing</title>
<path fill="#f7e5aa" stroke="#b99b5d" d="M843.25,-172C843.25,-172 624.75,-172 624.75,-172 618.75,-172 612.75,-166 612.75,-160 612.75,-160 612.75,-125 612.75,-125 612.75,-119 618.75,-113 624.75,-113 624.75,-113 843.25,-113 843.25,-113 849.25,-113 855.25,-119 855.25,-125 855.25,-125 855.25,-160 855.25,-160 855.25,-166 849.25,-172 843.25,-172"/>
<text xml:space="preserve" text-anchor="middle" x="734" y="-150.9" font-family="Architects Daughter" font-size="18.00">request&#45;tracing&#45;log&#45;capture</text>
<text xml:space="preserve" text-anchor="middle" x="734" y="-125.4" font-family="Architects Daughter" font-size="18.00">correlation&#45;aware logs</text>
</g>
<!-- cleanup&#45;&gt;tracing -->
<g id="edge2" class="edge">
<title>cleanup&#45;&gt;tracing</title>
<path fill="none" stroke="#4f8b63" stroke-width="2" d="M548.22,-177.49C565.02,-174.31 582.5,-171 599.71,-167.74"/>
<polygon fill="#4f8b63" stroke="#4f8b63" stroke-width="2" points="600.35,-171.18 609.52,-165.88 599.04,-164.3 600.35,-171.18"/>
</g>
<!-- scratch -->
<g id="node4" class="node">
<title>scratch</title>
<path fill="#eadcf5" stroke="#8a6bb0" d="M1158.25,-115C1158.25,-115 932.25,-115 932.25,-115 926.25,-115 920.25,-109 920.25,-103 920.25,-103 920.25,-68 920.25,-68 920.25,-62 926.25,-56 932.25,-56 932.25,-56 1158.25,-56 1158.25,-56 1164.25,-56 1170.25,-62 1170.25,-68 1170.25,-68 1170.25,-103 1170.25,-103 1170.25,-109 1164.25,-115 1158.25,-115"/>
<text xml:space="preserve" text-anchor="middle" x="1045.25" y="-93.9" font-family="Architects Daughter" font-size="18.00">temp&#45;resource&#45;test&#45;harness</text>
<text xml:space="preserve" text-anchor="middle" x="1045.25" y="-68.4" font-family="Architects Daughter" font-size="18.00">temporary files</text>
</g>
<!-- tracing&#45;&gt;scratch -->
<g id="edge3" class="edge">
<title>tracing&#45;&gt;scratch</title>
<path fill="none" stroke="#a78335" stroke-width="2" d="M855.45,-120.3C872.36,-117.18 889.84,-113.96 907.03,-110.79"/>
<polygon fill="#a78335" stroke="#a78335" stroke-width="2" points="907.62,-114.24 916.82,-108.99 906.35,-107.36 907.62,-114.24"/>
</g>
<!-- core -->
<g id="node5" class="node">
<title>core</title>
<path fill="#edf1e9" stroke="#91a08c" d="M195.62,-171C195.62,-171 64.12,-171 64.12,-171 58.13,-171 52.12,-165 52.12,-159 52.12,-159 52.12,-124 52.12,-124 52.12,-118 58.12,-112 64.12,-112 64.12,-112 195.62,-112 195.62,-112 201.62,-112 207.62,-118 207.62,-124 207.62,-124 207.62,-159 207.62,-159 207.62,-165 201.62,-171 195.62,-171"/>
<text xml:space="preserve" text-anchor="middle" x="129.88" y="-149.9" font-family="Architects Daughter" font-size="18.00">bluetape&#45;rs&#45;core</text>
<text xml:space="preserve" text-anchor="middle" x="129.88" y="-124.4" font-family="Architects Daughter" font-size="18.00">validation helpers</text>
</g>
<!-- core&#45;&gt;cleanup -->
<g id="edge4" class="edge">
<title>core&#45;&gt;cleanup</title>
<path fill="none" stroke="#47616f" stroke-width="2" d="M208.08,-155.96C239.53,-161.85 276.67,-168.8 311.71,-175.37"/>
<polygon fill="#47616f" stroke="#47616f" stroke-width="2" points="311.07,-178.81 321.54,-177.21 312.36,-171.92 311.07,-178.81"/>
</g>
<!-- logging -->
<g id="node6" class="node">
<title>logging</title>
<path fill="#edf1e9" stroke="#91a08c" d="M514,-115C514,-115 358.5,-115 358.5,-115 352.5,-115 346.5,-109 346.5,-103 346.5,-103 346.5,-68 346.5,-68 346.5,-62 352.5,-56 358.5,-56 358.5,-56 514,-56 514,-56 520,-56 526,-62 526,-68 526,-68 526,-103 526,-103 526,-109 520,-115 514,-115"/>
<text xml:space="preserve" text-anchor="middle" x="436.25" y="-93.9" font-family="Architects Daughter" font-size="18.00">bluetape&#45;rs&#45;logging</text>
<text xml:space="preserve" text-anchor="middle" x="436.25" y="-68.4" font-family="Architects Daughter" font-size="18.00">capture subscriber</text>
</g>
<!-- logging&#45;&gt;tracing -->
<g id="edge5" class="edge">
<title>logging&#45;&gt;tracing</title>
<path fill="none" stroke="#a78335" stroke-width="2" d="M526.39,-102.68C549.52,-107.14 574.94,-112.04 599.81,-116.83"/>
<polygon fill="#a78335" stroke="#a78335" stroke-width="2" points="598.9,-120.22 609.38,-118.67 600.22,-113.35 598.9,-120.22"/>
</g>
<!-- test -->
<g id="node7" class="node">
<title>test</title>
<path fill="#edf1e9" stroke="#91a08c" d="M800.88,-59C800.88,-59 667.12,-59 667.12,-59 661.12,-59 655.12,-53 655.12,-47 655.12,-47 655.12,-12 655.12,-12 655.12,-6 661.12,0 667.12,0 667.12,0 800.88,0 800.88,0 806.88,0 812.88,-6 812.88,-12 812.88,-12 812.88,-47 812.88,-47 812.88,-53 806.88,-59 800.88,-59"/>
<text xml:space="preserve" text-anchor="middle" x="734" y="-37.9" font-family="Architects Daughter" font-size="18.00">bluetape&#45;rs&#45;test</text>
<text xml:space="preserve" text-anchor="middle" x="734" y="-12.4" font-family="Architects Daughter" font-size="18.00">TempDir harness</text>
</g>
<!-- test&#45;&gt;scratch -->
<g id="edge6" class="edge">
<title>test&#45;&gt;scratch</title>
<path fill="none" stroke="#47616f" stroke-width="2" d="M813.04,-43.63C841.63,-48.81 874.89,-54.83 907.13,-60.67"/>
<polygon fill="#47616f" stroke="#47616f" stroke-width="2" points="906.46,-64.11 916.92,-62.44 907.71,-57.22 906.46,-64.11"/>
</g>
</g>
</svg>
