<?xml version="1.0" encoding="UTF-8" standalone="no"?>
<!DOCTYPE svg PUBLIC "-//W3C//DTD SVG 1.1//EN"
 "http://www.w3.org/Graphics/SVG/1.1/DTD/svg11.dtd">
<!-- Generated by graphviz version 15.0.0 (20260523.1842)
 -->
<!-- Title: workshop&#45;foundation&#45;sequence Pages: 1 -->
<svg width="506pt" height="389pt"
 viewBox="14.00 14.00 492.00 374.00" xmlns="http://www.w3.org/2000/svg" xmlns:xlink="http://www.w3.org/1999/xlink">
<g id="graph0" class="graph" transform="scale(1 1) rotate(0) translate(18.4 370.4)">
<title>workshop&#45;foundation&#45;sequence</title>
<polygon fill="#fbfaf6" stroke="none" points="-4,4 -4,-356 473.25,-356 473.25,4 -4,4"/>
<!-- learner -->
<g id="node1" class="node">
<title>learner</title>
<path fill="#d7ecf2" stroke="#48758d" d="M91,-208C91,-208 12,-208 12,-208 6,-208 0,-202 0,-196 0,-196 0,-161 0,-161 0,-155 6,-149 12,-149 12,-149 91,-149 91,-149 97,-149 103,-155 103,-161 103,-161 103,-196 103,-196 103,-202 97,-208 91,-208"/>
<text xml:space="preserve" text-anchor="middle" x="51.5" y="-186.9" font-family="Architects Daughter" font-size="18.00">Learner</text>
<text xml:space="preserve" text-anchor="middle" x="51.5" y="-161.4" font-family="Architects Daughter" font-size="18.00">runs tests</text>
</g>
<!-- cleanup -->
<g id="node2" class="node">
<title>cleanup</title>
<path fill="#dbe8d4" stroke="#5d8a62" d="M457.25,-352C457.25,-352 331,-352 331,-352 325,-352 319,-346 319,-340 319,-340 319,-305 319,-305 319,-299 325,-293 331,-293 331,-293 457.25,-293 457.25,-293 463.25,-293 469.25,-299 469.25,-305 469.25,-305 469.25,-340 469.25,-340 469.25,-346 463.25,-352 457.25,-352"/>
<text xml:space="preserve" text-anchor="middle" x="394.12" y="-330.9" font-family="Architects Daughter" font-size="18.00">Cleanup Example</text>
<text xml:space="preserve" text-anchor="middle" x="394.12" y="-305.4" font-family="Architects Daughter" font-size="18.00">normalize rows</text>
</g>
<!-- learner&#45;&gt;cleanup -->
<g id="edge1" class="edge">
<title>learner&#45;&gt;cleanup</title>
<path fill="none" stroke="#47616f" stroke-width="2" d="M63.95,-208.37C76.78,-237.33 100.53,-279.81 136,-300.5 186.86,-330.16 253.26,-335.17 305.84,-333.02"/>
<polygon fill="#47616f" stroke="#47616f" stroke-width="2" points="305.73,-336.53 315.53,-332.51 305.36,-329.54 305.73,-336.53"/>
<text xml:space="preserve" text-anchor="middle" x="211" y="-335.75" font-family="Comic Mono" font-size="11.00" fill="#47616f">1. normalize partner rows</text>
</g>
<!-- logging -->
<g id="node3" class="node">
<title>logging</title>
<path fill="#f7e5aa" stroke="#b99b5d" d="M457.25,-187C457.25,-187 331,-187 331,-187 325,-187 319,-181 319,-175 319,-175 319,-140 319,-140 319,-134 325,-128 331,-128 331,-128 457.25,-128 457.25,-128 463.25,-128 469.25,-134 469.25,-140 469.25,-140 469.25,-175 469.25,-175 469.25,-181 463.25,-187 457.25,-187"/>
<text xml:space="preserve" text-anchor="middle" x="394.12" y="-165.9" font-family="Architects Daughter" font-size="18.00">Logging Example</text>
<text xml:space="preserve" text-anchor="middle" x="394.12" y="-140.4" font-family="Architects Daughter" font-size="18.00">capture event</text>
</g>
<!-- learner&#45;&gt;logging -->
<g id="edge3" class="edge">
<title>learner&#45;&gt;logging</title>
<path fill="none" stroke="#a78335" stroke-width="2" d="M103.5,-175.36C156.89,-172.06 241.72,-166.83 305.8,-162.88"/>
<polygon fill="#a78335" stroke="#a78335" stroke-width="2" points="305.95,-166.38 315.71,-162.27 305.51,-159.39 305.95,-166.38"/>
<text xml:space="preserve" text-anchor="middle" x="211" y="-175.17" font-family="Comic Mono" font-size="11.00" fill="#a78335">2. assert correlation log</text>
</g>
<!-- scratch -->
<g id="node4" class="node">
<title>scratch</title>
<path fill="#eadcf5" stroke="#8a6bb0" d="M457.25,-59C457.25,-59 331,-59 331,-59 325,-59 319,-53 319,-47 319,-47 319,-12 319,-12 319,-6 325,0 331,0 331,0 457.25,0 457.25,0 463.25,0 469.25,-6 469.25,-12 469.25,-12 469.25,-47 469.25,-47 469.25,-53 463.25,-59 457.25,-59"/>
<text xml:space="preserve" text-anchor="middle" x="394.12" y="-37.9" font-family="Architects Daughter" font-size="18.00">Temp Resource</text>
<text xml:space="preserve" text-anchor="middle" x="394.12" y="-12.4" font-family="Architects Daughter" font-size="18.00">write artifact</text>
</g>
<!-- learner&#45;&gt;scratch -->
<g id="edge5" class="edge">
<title>learner&#45;&gt;scratch</title>
<path fill="none" stroke="#47616f" stroke-width="2" d="M81.12,-148.59C96.28,-134.22 115.88,-117.76 136,-106.75 189.16,-77.65 254.66,-58.18 306.24,-46.07"/>
<polygon fill="#47616f" stroke="#47616f" stroke-width="2" points="306.78,-49.53 315.75,-43.89 305.22,-42.71 306.78,-49.53"/>
<text xml:space="preserve" text-anchor="middle" x="211" y="-109.05" font-family="Comic Mono" font-size="11.00" fill="#47616f">3. write scratch rows</text>
</g>
<!-- cleanup&#45;&gt;learner -->
<g id="edge2" class="edge">
<title>cleanup&#45;&gt;learner</title>
<path fill="none" stroke="#4f8b63" stroke-width="2" d="M322.2,-292.52C261.1,-266.69 173.75,-229.76 115.17,-205"/>
<polygon fill="#4f8b63" stroke="#4f8b63" stroke-width="2" points="116.86,-201.91 106.28,-201.24 114.13,-208.35 116.86,-201.91"/>
<text xml:space="preserve" text-anchor="middle" x="211" y="-278.22" font-family="Comic Mono" font-size="11.00" fill="#4f8b63">validated order</text>
</g>
<!-- logging&#45;&gt;learner -->
<g id="edge4" class="edge">
<title>logging&#45;&gt;learner</title>
<path fill="none" stroke="#4f8b63" stroke-width="2" d="M318.59,-141.27C266.81,-132.68 196.52,-126.39 136,-139.75 129.17,-141.26 122.24,-143.38 115.44,-145.87"/>
<polygon fill="#4f8b63" stroke="#4f8b63" stroke-width="2" points="114.19,-142.6 106.2,-149.55 116.78,-149.1 114.19,-142.6"/>
<text xml:space="preserve" text-anchor="middle" x="211" y="-142.05" font-family="Comic Mono" font-size="11.00" fill="#4f8b63">captured text</text>
</g>
<!-- scratch&#45;&gt;learner -->
<g id="edge6" class="edge">
<title>scratch&#45;&gt;learner</title>
<path fill="none" stroke="#4f8b63" stroke-width="2" d="M318.58,-8.81C264.19,1.86 190.72,6.7 136,-25.75 96,-49.47 73.92,-99.85 62.67,-136.28"/>
<polygon fill="#4f8b63" stroke="#4f8b63" stroke-width="2" points="59.39,-135.03 59.97,-145.61 66.11,-136.98 59.39,-135.03"/>
<text xml:space="preserve" text-anchor="middle" x="211" y="-28.05" font-family="Comic Mono" font-size="11.00" fill="#4f8b63">cleanup verified</text>
</g>
</g>
</svg>
