<?xml version="1.0" encoding="UTF-8" standalone="no"?>
<!DOCTYPE svg PUBLIC "-//W3C//DTD SVG 1.1//EN"
 "http://www.w3.org/Graphics/SVG/1.1/DTD/svg11.dtd">
<!-- Generated by graphviz version 15.0.0 (20260523.1842)
 -->
<!-- Title: workshop&#45;collections&#45;async&#45;architecture Pages: 1 -->
<svg width="1389pt" height="458pt"
 viewBox="14.00 14.00 1375.00 443.00" xmlns="http://www.w3.org/2000/svg" xmlns:xlink="http://www.w3.org/1999/xlink">
<g id="graph0" class="graph" transform="scale(1 1) rotate(0) translate(18.4 439.4)">
<title>workshop&#45;collections&#45;async&#45;architecture</title>
<polygon fill="#fbfaf6" stroke="none" points="-4,4 -4,-425 1356.5,-425 1356.5,4 -4,4"/>
<!-- baseline -->
<g id="node1" class="node">
<title>baseline</title>
<path fill="#d7ecf2" stroke="#48758d" d="M225.62,-421C225.62,-421 16.87,-421 16.87,-421 10.88,-421 4.88,-415 4.88,-409 4.88,-409 4.88,-374 4.88,-374 4.88,-368 10.88,-362 16.88,-362 16.88,-362 225.62,-362 225.62,-362 231.62,-362 237.62,-368 237.62,-374 237.62,-374 237.62,-409 237.62,-409 237.62,-415 231.62,-421 225.62,-421"/>
<text xml:space="preserve" text-anchor="middle" x="121.25" y="-399.9" font-family="Architects Daughter" font-size="18.00">0.1.0 Baseline</text>
<text xml:space="preserve" text-anchor="middle" x="121.25" y="-374.4" font-family="Architects Daughter" font-size="18.00">validation + logging + tests</text>
</g>
<!-- windowing -->
<g id="node2" class="node">
<title>windowing</title>
<path fill="#dbe8d4" stroke="#5d8a62" d="M606.12,-291C606.12,-291 408.62,-291 408.62,-291 402.62,-291 396.62,-285 396.62,-279 396.62,-279 396.62,-244 396.62,-244 396.62,-238 402.62,-232 408.62,-232 408.62,-232 606.12,-232 606.12,-232 612.12,-232 618.12,-238 618.12,-244 618.12,-244 618.12,-279 618.12,-279 618.12,-285 612.12,-291 606.12,-291"/>
<text xml:space="preserve" text-anchor="middle" x="507.38" y="-269.9" font-family="Architects Daughter" font-size="18.00">batched&#45;order&#45;windowing</text>
<text xml:space="preserve" text-anchor="middle" x="507.38" y="-244.4" font-family="Architects Daughter" font-size="18.00">group + chunk + page</text>
</g>
<!-- baseline&#45;&gt;windowing -->
<g id="edge1" class="edge">
<title>baseline&#45;&gt;windowing</title>
<path fill="none" stroke="#47616f" stroke-width="2" d="M210.86,-361.51C269,-341.83 345.18,-316.06 405.62,-295.6"/>
<polygon fill="#47616f" stroke="#47616f" stroke-width="2" points="406.66,-298.94 415.01,-292.42 404.42,-292.31 406.66,-298.94"/>
<text xml:space="preserve" text-anchor="middle" x="317.5" y="-340.44" font-family="Comic Mono" font-size="11.00" fill="#47616f">validated rows</text>
</g>
<!-- catalog -->
<g id="node3" class="node">
<title>catalog</title>
<path fill="#f7e5aa" stroke="#b99b5d" d="M969.75,-176C969.75,-176 760.25,-176 760.25,-176 754.25,-176 748.25,-170 748.25,-164 748.25,-164 748.25,-129 748.25,-129 748.25,-123 754.25,-117 760.25,-117 760.25,-117 969.75,-117 969.75,-117 975.75,-117 981.75,-123 981.75,-129 981.75,-129 981.75,-164 981.75,-164 981.75,-170 975.75,-176 969.75,-176"/>
<text xml:space="preserve" text-anchor="middle" x="865" y="-154.9" font-family="Architects Daughter" font-size="18.00">catalog&#45;enrichment&#45;fanout</text>
<text xml:space="preserve" text-anchor="middle" x="865" y="-129.4" font-family="Architects Daughter" font-size="18.00">bounded provider fan&#45;out</text>
</g>
<!-- baseline&#45;&gt;catalog -->
<g id="edge2" class="edge">
<title>baseline&#45;&gt;catalog</title>
<path fill="none" stroke="#a78335" stroke-width="2" d="M237.97,-390.66C342.16,-386.22 497.6,-370.32 622.25,-318.5 700.24,-286.08 777.5,-224.63 822.97,-184.63"/>
<polygon fill="#a78335" stroke="#a78335" stroke-width="2" points="825.05,-187.47 830.19,-178.21 820.4,-182.24 825.05,-187.47"/>
<text xml:space="preserve" text-anchor="middle" x="507.38" y="-379.1" font-family="Comic Mono" font-size="11.00" fill="#a78335">request context</text>
</g>
<!-- windowing&#45;&gt;catalog -->
<g id="edge3" class="edge">
<title>windowing&#45;&gt;catalog</title>
<path fill="none" stroke="#4f8b63" stroke-width="2" d="M600.88,-231.59C649.36,-215.91 708.93,-196.64 759.13,-180.41"/>
<polygon fill="#4f8b63" stroke="#4f8b63" stroke-width="2" points="760.02,-183.8 768.46,-177.4 757.87,-177.14 760.02,-183.8"/>
<text xml:space="preserve" text-anchor="middle" x="685.25" y="-213.19" font-family="Comic Mono" font-size="11.00" fill="#4f8b63">paged rows</text>
</g>
<!-- worker -->
<g id="node4" class="node">
<title>worker</title>
<path fill="#eadcf5" stroke="#8a6bb0" d="M1340.5,-97C1340.5,-97 1143.75,-97 1143.75,-97 1137.75,-97 1131.75,-91 1131.75,-85 1131.75,-85 1131.75,-50 1131.75,-50 1131.75,-44 1137.75,-38 1143.75,-38 1143.75,-38 1340.5,-38 1340.5,-38 1346.5,-38 1352.5,-44 1352.5,-50 1352.5,-50 1352.5,-85 1352.5,-85 1352.5,-91 1346.5,-97 1340.5,-97"/>
<text xml:space="preserve" text-anchor="middle" x="1242.12" y="-75.9" font-family="Architects Daughter" font-size="18.00">shutdown&#45;aware&#45;worker</text>
<text xml:space="preserve" text-anchor="middle" x="1242.12" y="-50.4" font-family="Architects Daughter" font-size="18.00">timeout + shutdown</text>
</g>
<!-- catalog&#45;&gt;worker -->
<g id="edge4" class="edge">
<title>catalog&#45;&gt;worker</title>
<path fill="none" stroke="#a78335" stroke-width="2" d="M982.12,-122.04C1025.5,-112.91 1074.86,-102.51 1118.78,-93.26"/>
<polygon fill="#a78335" stroke="#a78335" stroke-width="2" points="1119.29,-96.73 1128.35,-91.25 1117.85,-89.89 1119.29,-96.73"/>
<text xml:space="preserve" text-anchor="middle" x="1056.75" y="-116.38" font-family="Comic Mono" font-size="11.00" fill="#a78335">async contract</text>
</g>
<!-- core -->
<g id="node5" class="node">
<title>core</title>
<path fill="#edf1e9" stroke="#91a08c" d="M186.25,-298C186.25,-298 56.25,-298 56.25,-298 50.25,-298 44.25,-292 44.25,-286 44.25,-286 44.25,-251 44.25,-251 44.25,-245 50.25,-239 56.25,-239 56.25,-239 186.25,-239 186.25,-239 192.25,-239 198.25,-245 198.25,-251 198.25,-251 198.25,-286 198.25,-286 198.25,-292 192.25,-298 186.25,-298"/>
<text xml:space="preserve" text-anchor="middle" x="121.25" y="-276.9" font-family="Architects Daughter" font-size="18.00">bluetape&#45;rs&#45;core</text>
<text xml:space="preserve" text-anchor="middle" x="121.25" y="-251.4" font-family="Architects Daughter" font-size="18.00">input validation</text>
</g>
<!-- core&#45;&gt;windowing -->
<g id="edge5" class="edge">
<title>core&#45;&gt;windowing</title>
<path fill="none" stroke="#47616f" stroke-width="2" d="M198.6,-267.11C251.4,-266.15 322.81,-264.85 383.55,-263.74"/>
<polygon fill="#47616f" stroke="#47616f" stroke-width="2" points="383.37,-267.24 393.31,-263.56 383.25,-260.24 383.37,-267.24"/>
</g>
<!-- collections -->
<g id="node6" class="node">
<title>collections</title>
<path fill="#edf1e9" stroke="#91a08c" d="M230.5,-181C230.5,-181 12,-181 12,-181 6,-181 0,-175 0,-169 0,-169 0,-134 0,-134 0,-128 6,-122 12,-122 12,-122 230.5,-122 230.5,-122 236.5,-122 242.5,-128 242.5,-134 242.5,-134 242.5,-169 242.5,-169 242.5,-175 236.5,-181 230.5,-181"/>
<text xml:space="preserve" text-anchor="middle" x="121.25" y="-159.9" font-family="Architects Daughter" font-size="18.00">bluetape&#45;rs&#45;collections</text>
<text xml:space="preserve" text-anchor="middle" x="121.25" y="-134.4" font-family="Architects Daughter" font-size="18.00">group_by + chunks + Page</text>
</g>
<!-- collections&#45;&gt;windowing -->
<g id="edge6" class="edge">
<title>collections&#45;&gt;windowing</title>
<path fill="none" stroke="#4f8b63" stroke-width="2" d="M226.96,-181.49C277.24,-195.88 337.68,-213.19 389.46,-228.02"/>
<polygon fill="#4f8b63" stroke="#4f8b63" stroke-width="2" points="388.25,-231.31 398.83,-230.7 390.18,-224.58 388.25,-231.31"/>
</g>
<!-- collections&#45;&gt;catalog -->
<g id="edge7" class="edge">
<title>collections&#45;&gt;catalog</title>
<path fill="none" stroke="#4f8b63" stroke-width="2" d="M242.66,-150.69C377.93,-149.78 596.64,-148.3 735.24,-147.37"/>
<polygon fill="#4f8b63" stroke="#4f8b63" stroke-width="2" points="734.97,-150.87 744.95,-147.3 734.93,-143.87 734.97,-150.87"/>
</g>
<!-- async -->
<g id="node7" class="node">
<title>async</title>
<path fill="#edf1e9" stroke="#91a08c" d="M610.25,-59C610.25,-59 404.5,-59 404.5,-59 398.5,-59 392.5,-53 392.5,-47 392.5,-47 392.5,-12 392.5,-12 392.5,-6 398.5,0 404.5,0 404.5,0 610.25,0 610.25,0 616.25,0 622.25,-6 622.25,-12 622.25,-12 622.25,-47 622.25,-47 622.25,-53 616.25,-59 610.25,-59"/>
<text xml:space="preserve" text-anchor="middle" x="507.38" y="-37.9" font-family="Architects Daughter" font-size="18.00">bluetape&#45;rs&#45;async</text>
<text xml:space="preserve" text-anchor="middle" x="507.38" y="-12.4" font-family="Architects Daughter" font-size="18.00">fan&#45;out + timeout + signal</text>
</g>
<!-- async&#45;&gt;catalog -->
<g id="edge8" class="edge">
<title>async&#45;&gt;catalog</title>
<path fill="none" stroke="#a78335" stroke-width="2" d="M599.5,-59.48C648.84,-75.71 709.98,-95.83 761.04,-112.63"/>
<polygon fill="#a78335" stroke="#a78335" stroke-width="2" points="759.65,-115.85 770.24,-115.65 761.84,-109.2 759.65,-115.85"/>
</g>
<!-- async&#45;&gt;worker -->
<g id="edge9" class="edge">
<title>async&#45;&gt;worker</title>
<path fill="none" stroke="#a78335" stroke-width="2" d="M622.46,-35.42C757.23,-42.41 980.54,-53.99 1118.8,-61.16"/>
<polygon fill="#a78335" stroke="#a78335" stroke-width="2" points="1118.3,-64.64 1128.47,-61.66 1118.67,-57.64 1118.3,-64.64"/>
</g>
</g>
</svg>
