<?xml version="1.0" encoding="UTF-8" standalone="no"?>
<!DOCTYPE svg PUBLIC "-//W3C//DTD SVG 1.1//EN"
 "http://www.w3.org/Graphics/SVG/1.1/DTD/svg11.dtd">
<!-- Generated by graphviz version 15.0.0 (20260523.1842)
 -->
<!-- Title: Milestone 0.1.0 sequence Pages: 1 -->
<svg width="229pt" height="490pt"
 viewBox="0.00 0.00 229.00 490.00" xmlns="http://www.w3.org/2000/svg" xmlns:xlink="http://www.w3.org/1999/xlink">
<g id="graph0" class="graph" transform="scale(1 1) rotate(0) translate(28.8 460.88)">
<title>Milestone 0.1.0 sequence</title>
<!-- raw -->
<g id="node1" class="node">
<title>raw</title>
<path fill="#e0f2fe" stroke="#2f3437" d="M142.16,-432.08C142.16,-432.08 28.87,-432.08 28.87,-432.08 22.88,-432.08 16.88,-426.08 16.88,-420.08 16.88,-420.08 16.88,-408.08 16.88,-408.08 16.88,-402.08 22.88,-396.08 28.88,-396.08 28.88,-396.08 142.16,-396.08 142.16,-396.08 148.16,-396.08 154.16,-402.08 154.16,-408.08 154.16,-408.08 154.16,-420.08 154.16,-420.08 154.16,-426.08 148.16,-432.08 142.16,-432.08"/>
<text xml:space="preserve" text-anchor="middle" x="85.52" y="-409.8" font-family="Arial" font-size="12.00">1. Receive partner row</text>
</g>
<!-- validate -->
<g id="node2" class="node">
<title>validate</title>
<path fill="#eef2ff" stroke="#2f3437" d="M149.28,-356.08C149.28,-356.08 21.75,-356.08 21.75,-356.08 15.75,-356.08 9.75,-350.08 9.75,-344.08 9.75,-344.08 9.75,-328.06 9.75,-328.06 9.75,-322.06 15.75,-316.06 21.75,-316.06 21.75,-316.06 149.28,-316.06 149.28,-316.06 155.28,-316.06 161.28,-322.06 161.28,-328.06 161.28,-328.06 161.28,-344.08 161.28,-344.08 161.28,-350.08 155.28,-356.08 149.28,-356.08"/>
<text xml:space="preserve" text-anchor="middle" x="85.52" y="-338.92" font-family="Arial" font-size="12.00">2. Validate required fields</text>
<text xml:space="preserve" text-anchor="middle" x="85.52" y="-324.67" font-family="Arial" font-size="12.00">bluetape&#45;rs&#45;core</text>
</g>
<!-- raw&#45;&gt;validate -->
<g id="edge1" class="edge">
<title>raw&#45;&gt;validate</title>
<path fill="none" stroke="#4b5563" d="M85.52,-395.83C85.52,-386.94 85.52,-375.85 85.52,-365.72"/>
<polygon fill="#4b5563" stroke="#4b5563" points="88.32,-365.9 85.52,-357.9 82.72,-365.9 88.32,-365.9"/>
</g>
<!-- normalize -->
<g id="node3" class="node">
<title>normalize</title>
<path fill="#dcfce7" stroke="#2f3437" d="M154.16,-276.06C154.16,-276.06 16.87,-276.06 16.87,-276.06 10.87,-276.06 4.88,-270.06 4.88,-264.06 4.88,-264.06 4.88,-248.04 4.88,-248.04 4.88,-242.04 10.88,-236.04 16.88,-236.04 16.88,-236.04 154.16,-236.04 154.16,-236.04 160.16,-236.04 166.16,-242.04 166.16,-248.04 166.16,-248.04 166.16,-264.06 166.16,-264.06 166.16,-270.06 160.16,-276.06 154.16,-276.06"/>
<text xml:space="preserve" text-anchor="middle" x="85.52" y="-258.9" font-family="Arial" font-size="12.00">3. Normalize order payload</text>
<text xml:space="preserve" text-anchor="middle" x="85.52" y="-244.65" font-family="Arial" font-size="12.00">foundation&#45;order&#45;cleanup</text>
</g>
<!-- validate&#45;&gt;normalize -->
<g id="edge2" class="edge">
<title>validate&#45;&gt;normalize</title>
<path fill="none" stroke="#4b5563" d="M85.52,-315.78C85.52,-306.69 85.52,-295.65 85.52,-285.61"/>
<polygon fill="#4b5563" stroke="#4b5563" points="88.32,-285.9 85.52,-277.9 82.72,-285.9 88.32,-285.9"/>
</g>
<!-- log -->
<g id="node4" class="node">
<title>log</title>
<path fill="#fef3c7" stroke="#2f3437" d="M135.03,-196.04C135.03,-196.04 36,-196.04 36,-196.04 30,-196.04 24,-190.04 24,-184.04 24,-184.04 24,-168.02 24,-168.02 24,-162.02 30,-156.02 36,-156.02 36,-156.02 135.03,-156.02 135.03,-156.02 141.03,-156.02 147.03,-162.02 147.03,-168.02 147.03,-168.02 147.03,-184.04 147.03,-184.04 147.03,-190.04 141.03,-196.04 135.03,-196.04"/>
<text xml:space="preserve" text-anchor="middle" x="85.52" y="-178.88" font-family="Arial" font-size="12.00">4. Emit captured log</text>
<text xml:space="preserve" text-anchor="middle" x="85.52" y="-164.63" font-family="Arial" font-size="12.00">bluetape&#45;rs&#45;logging</text>
</g>
<!-- normalize&#45;&gt;log -->
<g id="edge3" class="edge">
<title>normalize&#45;&gt;log</title>
<path fill="none" stroke="#4b5563" d="M85.52,-235.76C85.52,-226.67 85.52,-215.63 85.52,-205.59"/>
<polygon fill="#4b5563" stroke="#4b5563" points="88.32,-205.88 85.52,-197.88 82.72,-205.88 88.32,-205.88"/>
</g>
<!-- scratch -->
<g id="node5" class="node">
<title>scratch</title>
<path fill="#fae8ff" stroke="#2f3437" d="M144.03,-116.02C144.03,-116.02 27,-116.02 27,-116.02 21,-116.02 15,-110.02 15,-104.02 15,-104.02 15,-88 15,-88 15,-82 21,-76 27,-76 27,-76 144.03,-76 144.03,-76 150.03,-76 156.03,-82 156.03,-88 156.03,-88 156.03,-104.02 156.03,-104.02 156.03,-110.02 150.03,-116.02 144.03,-116.02"/>
<text xml:space="preserve" text-anchor="middle" x="85.52" y="-98.86" font-family="Arial" font-size="12.00">5. Write isolated artifact</text>
<text xml:space="preserve" text-anchor="middle" x="85.52" y="-84.61" font-family="Arial" font-size="12.00">bluetape&#45;rs&#45;test</text>
</g>
<!-- log&#45;&gt;scratch -->
<g id="edge4" class="edge">
<title>log&#45;&gt;scratch</title>
<path fill="none" stroke="#4b5563" d="M85.52,-155.74C85.52,-146.65 85.52,-135.61 85.52,-125.57"/>
<polygon fill="#4b5563" stroke="#4b5563" points="88.32,-125.86 85.52,-117.86 82.72,-125.86 88.32,-125.86"/>
</g>
<!-- assert -->
<g id="node6" class="node">
<title>assert</title>
<path fill="#f1f5f9" stroke="#2f3437" d="M159.03,-36C159.03,-36 12,-36 12,-36 6,-36 0,-30 0,-24 0,-24 0,-12 0,-12 0,-6 6,0 12,0 12,0 159.03,0 159.03,0 165.03,0 171.03,-6 171.03,-12 171.03,-12 171.03,-24 171.03,-24 171.03,-30 165.03,-36 159.03,-36"/>
<text xml:space="preserve" text-anchor="middle" x="85.52" y="-13.72" font-family="Arial" font-size="12.00">6. Assert output, log, cleanup</text>
</g>
<!-- scratch&#45;&gt;assert -->
<g id="edge5" class="edge">
<title>scratch&#45;&gt;assert</title>
<path fill="none" stroke="#4b5563" d="M85.52,-75.83C85.52,-66.73 85.52,-55.69 85.52,-45.78"/>
<polygon fill="#4b5563" stroke="#4b5563" points="88.32,-45.87 85.52,-37.87 82.72,-45.87 88.32,-45.87"/>
</g>
</g>
</svg>
