<?xml version="1.0" encoding="UTF-8" standalone="no"?>
<!DOCTYPE svg PUBLIC "-//W3C//DTD SVG 1.1//EN"
 "http://www.w3.org/Graphics/SVG/1.1/DTD/svg11.dtd">
<!-- Generated by graphviz version 15.0.0 (20260523.1842)
 -->
<!-- Title: Milestone 0.1.0 architecture Pages: 1 -->
<svg width="1004pt" height="535pt"
 viewBox="0.00 0.00 1004.00 535.00" xmlns="http://www.w3.org/2000/svg" xmlns:xlink="http://www.w3.org/1999/xlink">
<g id="graph0" class="graph" transform="scale(1 1) rotate(0) translate(28.8 505.8)">
<title>Milestone 0.1.0 architecture</title>
<!-- input -->
<g id="node1" class="node">
<title>input</title>
<path fill="#e0f2fe" stroke="#2f3437" d="M107.65,-383C107.65,-383 13.12,-383 13.12,-383 7.12,-383 1.12,-377 1.12,-371 1.12,-371 1.12,-359 1.12,-359 1.12,-353 7.12,-347 13.12,-347 13.12,-347 107.65,-347 107.65,-347 113.65,-347 119.65,-353 119.65,-359 119.65,-359 119.65,-371 119.65,-371 119.65,-377 113.65,-383 107.65,-383"/>
<text xml:space="preserve" text-anchor="middle" x="60.39" y="-360.73" font-family="Arial" font-size="12.00">Partner Order Input</text>
</g>
<!-- cleanup -->
<g id="node2" class="node">
<title>cleanup</title>
<path fill="#dcfce7" stroke="#2f3437" d="M362.31,-362.01C362.31,-362.01 232.53,-362.01 232.53,-362.01 226.53,-362.01 220.53,-356.01 220.53,-350.01 220.53,-350.01 220.53,-333.99 220.53,-333.99 220.53,-327.99 226.53,-321.99 232.53,-321.99 232.53,-321.99 362.31,-321.99 362.31,-321.99 368.31,-321.99 374.31,-327.99 374.31,-333.99 374.31,-333.99 374.31,-350.01 374.31,-350.01 374.31,-356.01 368.31,-362.01 362.31,-362.01"/>
<text xml:space="preserve" text-anchor="middle" x="297.42" y="-344.85" font-family="Arial" font-size="12.00">foundation&#45;order&#45;cleanup</text>
<text xml:space="preserve" text-anchor="middle" x="297.42" y="-330.6" font-family="Arial" font-size="12.00">validation + normalization</text>
</g>
<!-- input&#45;&gt;cleanup -->
<g id="edge1" class="edge">
<title>input&#45;&gt;cleanup</title>
<path fill="none" stroke="#4b5563" d="M120.09,-359.26C147.57,-356.57 180.83,-353.31 211.02,-350.36"/>
<polygon fill="#4b5563" stroke="#4b5563" points="211.09,-353.16 218.78,-349.6 210.54,-347.59 211.09,-353.16"/>
<text xml:space="preserve" text-anchor="middle" x="170.65" y="-358.06" font-family="Arial" font-size="10.00">rows</text>
</g>
<!-- tracing -->
<g id="node3" class="node">
<title>tracing</title>
<path fill="#fef3c7" stroke="#2f3437" d="M656.34,-310.01C656.34,-310.01 519.81,-310.01 519.81,-310.01 513.81,-310.01 507.81,-304.01 507.81,-298.01 507.81,-298.01 507.81,-281.99 507.81,-281.99 507.81,-275.99 513.81,-269.99 519.81,-269.99 519.81,-269.99 656.34,-269.99 656.34,-269.99 662.34,-269.99 668.34,-275.99 668.34,-281.99 668.34,-281.99 668.34,-298.01 668.34,-298.01 668.34,-304.01 662.34,-310.01 656.34,-310.01"/>
<text xml:space="preserve" text-anchor="middle" x="588.07" y="-292.85" font-family="Arial" font-size="12.00">request&#45;tracing&#45;log&#45;capture</text>
<text xml:space="preserve" text-anchor="middle" x="588.07" y="-278.6" font-family="Arial" font-size="12.00">correlation&#45;aware logs</text>
</g>
<!-- cleanup&#45;&gt;tracing -->
<g id="edge2" class="edge">
<title>cleanup&#45;&gt;tracing</title>
<path fill="none" stroke="#4b5563" d="M374.64,-328.27C412.68,-321.42 458.92,-313.09 498.53,-305.95"/>
<polygon fill="#4b5563" stroke="#4b5563" points="498.53,-308.8 505.91,-304.62 497.54,-303.28 498.53,-308.8"/>
<text xml:space="preserve" text-anchor="middle" x="441.06" y="-324.69" font-family="Arial" font-size="10.00">request context</text>
</g>
<!-- scratch -->
<g id="node4" class="node">
<title>scratch</title>
<path fill="#fae8ff" stroke="#2f3437" d="M934.62,-127.01C934.62,-127.01 795.84,-127.01 795.84,-127.01 789.84,-127.01 783.84,-121.01 783.84,-115.01 783.84,-115.01 783.84,-98.99 783.84,-98.99 783.84,-92.99 789.84,-86.99 795.84,-86.99 795.84,-86.99 934.62,-86.99 934.62,-86.99 940.62,-86.99 946.62,-92.99 946.62,-98.99 946.62,-98.99 946.62,-115.01 946.62,-115.01 946.62,-121.01 940.62,-127.01 934.62,-127.01"/>
<text xml:space="preserve" text-anchor="middle" x="865.23" y="-109.85" font-family="Arial" font-size="12.00">temp&#45;resource&#45;test&#45;harness</text>
<text xml:space="preserve" text-anchor="middle" x="865.23" y="-95.6" font-family="Arial" font-size="12.00">temporary files</text>
</g>
<!-- tracing&#45;&gt;scratch -->
<g id="edge3" class="edge">
<title>tracing&#45;&gt;scratch</title>
<path fill="none" stroke="#4b5563" d="M619.84,-269.54C670.36,-235.94 770.79,-169.14 825.88,-132.51"/>
<polygon fill="#4b5563" stroke="#4b5563" points="827.29,-134.93 832.4,-128.17 824.19,-130.27 827.29,-134.93"/>
<text xml:space="preserve" text-anchor="middle" x="726.09" y="-217.39" font-family="Arial" font-size="10.00">test artifact</text>
</g>
<!-- core -->
<g id="node5" class="node">
<title>core</title>
<path fill="#eef2ff" stroke="#2f3437" d="M100.53,-243C100.53,-243 20.25,-243 20.25,-243 14.25,-243 8.25,-237 8.25,-231 8.25,-231 8.25,-219 8.25,-219 8.25,-213 14.25,-207 20.25,-207 20.25,-207 100.53,-207 100.53,-207 106.53,-207 112.53,-213 112.53,-219 112.53,-219 112.53,-231 112.53,-231 112.53,-237 106.53,-243 100.53,-243"/>
<text xml:space="preserve" text-anchor="middle" x="60.39" y="-220.72" font-family="Arial" font-size="12.00">bluetape&#45;rs&#45;core</text>
</g>
<!-- core&#45;&gt;cleanup -->
<g id="edge4" class="edge">
<title>core&#45;&gt;cleanup</title>
<path fill="none" stroke="#4b5563" d="M106.68,-247.54C149.67,-268.95 213.74,-300.84 255.31,-321.53"/>
<polygon fill="#4b5563" stroke="#4b5563" points="108.14,-245.14 99.73,-244.08 105.64,-250.16 108.14,-245.14"/>
<text xml:space="preserve" text-anchor="middle" x="170.65" y="-289.51" font-family="Arial" font-size="10.00">validate</text>
</g>
<!-- core&#45;&gt;tracing -->
<g id="edge5" class="edge">
<title>core&#45;&gt;tracing</title>
<path fill="none" stroke="#4b5563" d="M121.95,-232.49C217.1,-244.25 401.64,-267.07 507.42,-280.15"/>
<polygon fill="#4b5563" stroke="#4b5563" points="122.54,-229.74 114.25,-231.54 121.85,-235.3 122.54,-229.74"/>
<text xml:space="preserve" text-anchor="middle" x="297.42" y="-265.39" font-family="Arial" font-size="10.00">validate</text>
</g>
<!-- core&#45;&gt;scratch -->
<g id="edge6" class="edge">
<title>core&#45;&gt;scratch</title>
<path fill="none" stroke="#4b5563" d="M121.92,-216.1C264.64,-195.13 622.3,-142.56 783.37,-118.88"/>
<polygon fill="#4b5563" stroke="#4b5563" points="121.84,-213.29 114.33,-217.22 122.65,-218.83 121.84,-213.29"/>
<text xml:space="preserve" text-anchor="middle" x="441.06" y="-176.65" font-family="Arial" font-size="10.00">validate</text>
</g>
<!-- logging -->
<g id="node6" class="node">
<title>logging</title>
<path fill="#eef2ff" stroke="#2f3437" d="M108.78,-477C108.78,-477 12,-477 12,-477 6,-477 0,-471 0,-465 0,-465 0,-453 0,-453 0,-447 6,-441 12,-441 12,-441 108.78,-441 108.78,-441 114.78,-441 120.78,-447 120.78,-453 120.78,-453 120.78,-465 120.78,-465 120.78,-471 114.78,-477 108.78,-477"/>
<text xml:space="preserve" text-anchor="middle" x="60.39" y="-454.73" font-family="Arial" font-size="12.00">bluetape&#45;rs&#45;logging</text>
</g>
<!-- logging&#45;&gt;cleanup -->
<g id="edge7" class="edge">
<title>logging&#45;&gt;cleanup</title>
<path fill="none" stroke="#4b5563" d="M106.68,-436.46C149.67,-415.05 213.74,-383.16 255.31,-362.47"/>
<polygon fill="#4b5563" stroke="#4b5563" points="105.64,-433.84 99.73,-439.92 108.14,-438.86 105.64,-433.84"/>
<text xml:space="preserve" text-anchor="middle" x="170.65" y="-413.48" font-family="Arial" font-size="10.00">capture</text>
</g>
<!-- logging&#45;&gt;tracing -->
<g id="edge8" class="edge">
<title>logging&#45;&gt;tracing</title>
<path fill="none" stroke="#4b5563" d="M130.48,-446.03C149.05,-442.35 169.09,-438.19 187.53,-434 317.87,-404.36 352.84,-399.68 474.81,-345 499.07,-334.12 525.82,-321.06 547.12,-310.4"/>
<polygon fill="#4b5563" stroke="#4b5563" points="130,-443.27 122.69,-447.56 131.08,-448.77 130,-443.27"/>
<text xml:space="preserve" text-anchor="middle" x="297.42" y="-428.28" font-family="Arial" font-size="10.00">capture</text>
</g>
<!-- test -->
<g id="node7" class="node">
<title>test</title>
<path fill="#eef2ff" stroke="#2f3437" d="M625.96,-36C625.96,-36 550.18,-36 550.18,-36 544.18,-36 538.18,-30 538.18,-24 538.18,-24 538.18,-12 538.18,-12 538.18,-6 544.18,0 550.18,0 550.18,0 625.96,0 625.96,0 631.96,0 637.96,-6 637.96,-12 637.96,-12 637.96,-24 637.96,-24 637.96,-30 631.96,-36 625.96,-36"/>
<text xml:space="preserve" text-anchor="middle" x="588.07" y="-13.72" font-family="Arial" font-size="12.00">bluetape&#45;rs&#45;test</text>
</g>
<!-- test&#45;&gt;scratch -->
<g id="edge9" class="edge">
<title>test&#45;&gt;scratch</title>
<path fill="none" stroke="#4b5563" d="M647.39,-31.07C678.42,-38.54 717.04,-48.67 750.84,-60 773.67,-67.65 798.44,-77.71 818.99,-86.55"/>
<polygon fill="#4b5563" stroke="#4b5563" points="648.34,-28.42 639.91,-29.28 647.04,-33.86 648.34,-28.42"/>
<text xml:space="preserve" text-anchor="middle" x="726.09" y="-62.5" font-family="Arial" font-size="10.00">temp dir</text>
</g>
</g>
</svg>
