<?xml version="1.0" encoding="UTF-8" standalone="no"?>
<!DOCTYPE svg PUBLIC "-//W3C//DTD SVG 1.1//EN"
 "http://www.w3.org/Graphics/SVG/1.1/DTD/svg11.dtd">
<!-- Generated by graphviz version 15.0.0 (20260523.1842)
 -->
<!-- Title: workshop&#45;collections&#45;async&#45;sequence Pages: 1 -->
<svg width="581pt" height="395pt"
 viewBox="14.00 14.00 567.00 381.00" xmlns="http://www.w3.org/2000/svg" xmlns:xlink="http://www.w3.org/1999/xlink">
<g id="graph0" class="graph" transform="scale(1 1) rotate(0) translate(18.4 376.7)">
<title>workshop&#45;collections&#45;async&#45;sequence</title>
<polygon fill="#fbfaf6" stroke="none" points="-4,4 -4,-362.3 548.25,-362.3 548.25,4 -4,4"/>
<!-- learner -->
<g id="node1" class="node">
<title>learner</title>
<path fill="#d7ecf2" stroke="#48758d" d="M121,-214.3C121,-214.3 12,-214.3 12,-214.3 6,-214.3 0,-208.3 0,-202.3 0,-202.3 0,-167.3 0,-167.3 0,-161.3 6,-155.3 12,-155.3 12,-155.3 121,-155.3 121,-155.3 127,-155.3 133,-161.3 133,-167.3 133,-167.3 133,-202.3 133,-202.3 133,-208.3 127,-214.3 121,-214.3"/>
<text xml:space="preserve" text-anchor="middle" x="66.5" y="-193.2" font-family="Architects Daughter" font-size="18.00">Learner</text>
<text xml:space="preserve" text-anchor="middle" x="66.5" y="-167.7" font-family="Architects Daughter" font-size="18.00">runs examples</text>
</g>
<!-- windowing -->
<g id="node2" class="node">
<title>windowing</title>
<path fill="#dbe8d4" stroke="#5d8a62" d="M527.75,-358.3C527.75,-358.3 413.5,-358.3 413.5,-358.3 407.5,-358.3 401.5,-352.3 401.5,-346.3 401.5,-346.3 401.5,-311.3 401.5,-311.3 401.5,-305.3 407.5,-299.3 413.5,-299.3 413.5,-299.3 527.75,-299.3 527.75,-299.3 533.75,-299.3 539.75,-305.3 539.75,-311.3 539.75,-311.3 539.75,-346.3 539.75,-346.3 539.75,-352.3 533.75,-358.3 527.75,-358.3"/>
<text xml:space="preserve" text-anchor="middle" x="470.62" y="-337.2" font-family="Architects Daughter" font-size="18.00">Windowing</text>
<text xml:space="preserve" text-anchor="middle" x="470.62" y="-311.7" font-family="Architects Daughter" font-size="18.00">group + chunk</text>
</g>
<!-- learner&#45;&gt;windowing -->
<g id="edge1" class="edge">
<title>learner&#45;&gt;windowing</title>
<path fill="none" stroke="#47616f" stroke-width="2" d="M82.23,-214.61C98.4,-243.74 127.29,-286.55 166,-306.8 234.68,-342.73 324.3,-344.71 388.34,-339.85"/>
<polygon fill="#47616f" stroke="#47616f" stroke-width="2" points="388.52,-343.35 398.18,-339.02 387.92,-336.38 388.52,-343.35"/>
<text xml:space="preserve" text-anchor="middle" x="265" y="-344.09" font-family="Comic Mono" font-size="11.00" fill="#47616f">1. page partner events</text>
</g>
<!-- catalog -->
<g id="node3" class="node">
<title>catalog</title>
<path fill="#f7e5aa" stroke="#b99b5d" d="M532.25,-193.3C532.25,-193.3 409,-193.3 409,-193.3 403,-193.3 397,-187.3 397,-181.3 397,-181.3 397,-146.3 397,-146.3 397,-140.3 403,-134.3 409,-134.3 409,-134.3 532.25,-134.3 532.25,-134.3 538.25,-134.3 544.25,-140.3 544.25,-146.3 544.25,-146.3 544.25,-181.3 544.25,-181.3 544.25,-187.3 538.25,-193.3 532.25,-193.3"/>
<text xml:space="preserve" text-anchor="middle" x="470.62" y="-172.2" font-family="Architects Daughter" font-size="18.00">Catalog Fan&#45;out</text>
<text xml:space="preserve" text-anchor="middle" x="470.62" y="-146.7" font-family="Architects Daughter" font-size="18.00">providers</text>
</g>
<!-- learner&#45;&gt;catalog -->
<g id="edge3" class="edge">
<title>learner&#45;&gt;catalog</title>
<path fill="none" stroke="#a78335" stroke-width="2" d="M133.45,-181.36C201.91,-177.78 309.25,-172.18 384.17,-168.27"/>
<polygon fill="#a78335" stroke="#a78335" stroke-width="2" points="384,-171.78 393.81,-167.76 383.64,-164.79 384,-171.78"/>
<text xml:space="preserve" text-anchor="middle" x="265" y="-181.47" font-family="Comic Mono" font-size="11.00" fill="#a78335">2. enrich with providers</text>
</g>
<!-- worker -->
<g id="node4" class="node">
<title>worker</title>
<path fill="#eadcf5" stroke="#8a6bb0" d="M530,-65.3C530,-65.3 411.25,-65.3 411.25,-65.3 405.25,-65.3 399.25,-59.3 399.25,-53.3 399.25,-53.3 399.25,-18.3 399.25,-18.3 399.25,-12.3 405.25,-6.3 411.25,-6.3 411.25,-6.3 530,-6.3 530,-6.3 536,-6.3 542,-12.3 542,-18.3 542,-18.3 542,-53.3 542,-53.3 542,-59.3 536,-65.3 530,-65.3"/>
<text xml:space="preserve" text-anchor="middle" x="470.62" y="-44.2" font-family="Architects Daughter" font-size="18.00">Worker Loop</text>
<text xml:space="preserve" text-anchor="middle" x="470.62" y="-18.7" font-family="Architects Daughter" font-size="18.00">shutdown signal</text>
</g>
<!-- learner&#45;&gt;worker -->
<g id="edge5" class="edge">
<title>learner&#45;&gt;worker</title>
<path fill="none" stroke="#47616f" stroke-width="2" d="M100.93,-154.97C119.08,-140.17 142.55,-123.13 166,-112.05 236.58,-78.73 323.52,-58.8 386.25,-47.72"/>
<polygon fill="#47616f" stroke="#47616f" stroke-width="2" points="386.61,-51.21 395.88,-46.07 385.43,-44.31 386.61,-51.21"/>
<text xml:space="preserve" text-anchor="middle" x="265" y="-114.35" font-family="Comic Mono" font-size="11.00" fill="#47616f">3. run worker with signal</text>
</g>
<!-- windowing&#45;&gt;learner -->
<g id="edge2" class="edge">
<title>windowing&#45;&gt;learner</title>
<path fill="none" stroke="#4f8b63" stroke-width="2" d="M401.2,-303.58C388.82,-299.05 376.03,-294.4 364,-290.05 289.86,-263.29 205.09,-233.26 145.23,-212.14"/>
<polygon fill="#4f8b63" stroke="#4f8b63" stroke-width="2" points="146.68,-208.94 136.08,-208.92 144.35,-215.54 146.68,-208.94"/>
<text xml:space="preserve" text-anchor="middle" x="265" y="-292.35" font-family="Comic Mono" font-size="11.00" fill="#4f8b63">deterministic Page</text>
</g>
<!-- catalog&#45;&gt;learner -->
<g id="edge4" class="edge">
<title>catalog&#45;&gt;learner</title>
<path fill="none" stroke="#4f8b63" stroke-width="2" d="M396.59,-149.6C334.68,-139.93 243.82,-131.3 166,-146.05 159.23,-147.34 152.33,-149.08 145.48,-151.11"/>
<polygon fill="#4f8b63" stroke="#4f8b63" stroke-width="2" points="144.58,-147.72 136.13,-154.12 146.73,-154.39 144.58,-147.72"/>
<text xml:space="preserve" text-anchor="middle" x="265" y="-148.35" font-family="Comic Mono" font-size="11.00" fill="#4f8b63">required error or warnings</text>
</g>
<!-- worker&#45;&gt;learner -->
<g id="edge6" class="edge">
<title>worker&#45;&gt;learner</title>
<path fill="none" stroke="#4f8b63" stroke-width="2" d="M398.83,-14.36C334.02,0.98 237.6,12.65 166,-27.05 121.86,-51.53 94.9,-104.94 80.59,-142.82"/>
<polygon fill="#4f8b63" stroke="#4f8b63" stroke-width="2" points="77.33,-141.56 77.24,-152.15 83.91,-143.92 77.33,-141.56"/>
<text xml:space="preserve" text-anchor="middle" x="265" y="-29.35" font-family="Comic Mono" font-size="11.00" fill="#4f8b63">completed / timed out / cancelled</text>
</g>
</g>
</svg>
